<?xml version="1.0" standalone="no"?>
 <!DOCTYPE svg PUBLIC "-//W3C//DTD SVG 1.1//EN" 
 "http://www.w3.org/Graphics/SVG/1.1/DTD/svg11.dtd"> 
<svg
  xmlns:svg="http://www.w3.org/2000/svg"
  xmlns="http://www.w3.org/2000/svg"
  xmlns:xlink="http://www.w3.org/1999/xlink"
  version="1.1"
  width="29.700220cm" height="21.000720cm" viewBox="0 0 116930 82680">
<title>SVG Picture created as NO2_signal_conditioner-F_Cu.svg date 2020/11/27 17:06:48 </title>
  <desc>Picture generated by PCBNEW </desc>
<g style="fill:#000000; fill-opacity:1;stroke:#000000; stroke-opacity:1;
stroke-linecap:round; stroke-linejoin:round;"
 transform="translate(0 0) scale(1 1)">
</g>
<g style="fill:#000000; fill-opacity:0.0; 
stroke:#000000; stroke-width:-0.000393701; stroke-opacity:1; 
stroke-linecap:round; stroke-linejoin:round;">
</g>
<g style="fill:#000000; fill-opacity:0.0; 
stroke:#000000; stroke-width:100; stroke-opacity:1; 
stroke-linecap:round; stroke-linejoin:round;">
<path d="M60000 35000 A1000 1000 0.0 0 0 61000 36000" />
<path d="M61000 25000 A1000 1000 0.0 0 0 60000 26000" />
<path d="M80000 26000 A1000 1000 0.0 0 0 79000 25000" />
<path d="M79000 36000 A1000 1000 0.0 0 0 80000 35000" />
<path d="M60000 35000
L60000 26000
" />
<path d="M79000 36000
L61000 36000
" />
</g>
<g style="fill:#000000; fill-opacity:0.0; 
stroke:#000000; stroke-width:98.4252; stroke-opacity:1; 
stroke-linecap:round; stroke-linejoin:round;">
<path d="M80000 26000
L80000 35000
" />
</g>
<g style="fill:#000000; fill-opacity:0.0; 
stroke:#000000; stroke-width:100; stroke-opacity:1; 
stroke-linecap:round; stroke-linejoin:round;">
<path d="M61000 25000
L79000 25000
" />
<g >
</g>
<g style="fill:#000000; fill-opacity:0.0; 
stroke:#000000; stroke-width:669.291; stroke-opacity:1; 
stroke-linecap:round; stroke-linejoin:round;">
<path d="M78450 26850
L78450 26850
" />
</g>
<g style="fill:#000000; fill-opacity:0.0; 
stroke:#000000; stroke-width:0; stroke-opacity:1; 
stroke-linecap:round; stroke-linejoin:round;">
</g>
<g style="fill:#000000; fill-opacity:1.0; 
stroke:#000000; stroke-width:0; stroke-opacity:1; 
stroke-linecap:round; stroke-linejoin:round;">
<path style="fill:#000000; fill-opacity:1.0; 
stroke:#000000; stroke-width:0; stroke-opacity:1; 
stroke-linecap:round; stroke-linejoin:round;fill-rule:evenodd;"
d="M 78784.6,27515.4
78784.6,28184.6
78115.4,28184.6
78115.4,27515.4
Z" /> 
</g>
<g >
</g>
<g style="fill:#000000; fill-opacity:1.0; 
stroke:#000000; stroke-width:0; stroke-opacity:1; 
stroke-linecap:round; stroke-linejoin:round;">
</g>
<g style="fill:#000000; fill-opacity:1.0; 
stroke:#000000; stroke-width:669.291; stroke-opacity:1; 
stroke-linecap:round; stroke-linejoin:round;">
</g>
<g style="fill:#000000; fill-opacity:0.0; 
stroke:#000000; stroke-width:669.291; stroke-opacity:1; 
stroke-linecap:round; stroke-linejoin:round;">
<path d="M78400 33350
L78400 33350
" />
</g>
<g style="fill:#000000; fill-opacity:0.0; 
stroke:#000000; stroke-width:0; stroke-opacity:1; 
stroke-linecap:round; stroke-linejoin:round;">
</g>
<g style="fill:#000000; fill-opacity:1.0; 
stroke:#000000; stroke-width:0; stroke-opacity:1; 
stroke-linecap:round; stroke-linejoin:round;">
<path style="fill:#000000; fill-opacity:1.0; 
stroke:#000000; stroke-width:0; stroke-opacity:1; 
stroke-linecap:round; stroke-linejoin:round;fill-rule:evenodd;"
d="M 78734.6,34015.4
78734.6,34684.6
78065.4,34684.6
78065.4,34015.4
Z" /> 
</g>
<g >
</g>
<g style="fill:#000000; fill-opacity:1.0; 
stroke:#000000; stroke-width:0; stroke-opacity:1; 
stroke-linecap:round; stroke-linejoin:round;">
</g>
<g style="fill:#000000; fill-opacity:1.0; 
stroke:#000000; stroke-width:629.921; stroke-opacity:1; 
stroke-linecap:round; stroke-linejoin:round;">
</g>
<g style="fill:#000000; fill-opacity:0.0; 
stroke:#000000; stroke-width:629.921; stroke-opacity:1; 
stroke-linecap:round; stroke-linejoin:round;">
<path d="M63400 31695
L63400 31695
" />
<path d="M62002 30297
L62002 30297
" />
<path d="M63400 28801
L63400 28998
" />
</g>
<g >
</g>
<g style="fill:#000000; fill-opacity:0.0; 
stroke:#000000; stroke-width:629.921; stroke-opacity:1; 
stroke-linecap:round; stroke-linejoin:round;">
</g>
<g style="fill:#000000; fill-opacity:0.0; 
stroke:#000000; stroke-width:0; stroke-opacity:1; 
stroke-linecap:round; stroke-linejoin:round;">
</g>
<g style="fill:#000000; fill-opacity:1.0; 
stroke:#000000; stroke-width:0; stroke-opacity:1; 
stroke-linecap:round; stroke-linejoin:round;">
<path style="fill:#000000; fill-opacity:1.0; 
stroke:#000000; stroke-width:0; stroke-opacity:1; 
stroke-linecap:round; stroke-linejoin:round;fill-rule:evenodd;"
d="M 74225.6,28096.1
74225.6,28352
73808.3,28352
73808.3,28096.1
Z" /> 
<path style="fill:#000000; fill-opacity:1.0; 
stroke:#000000; stroke-width:0; stroke-opacity:1; 
stroke-linecap:round; stroke-linejoin:round;fill-rule:evenodd;"
d="M 74225.6,27348
74225.6,27603.9
73808.3,27603.9
73808.3,27348
Z" /> 
<path style="fill:#000000; fill-opacity:1.0; 
stroke:#000000; stroke-width:0; stroke-opacity:1; 
stroke-linecap:round; stroke-linejoin:round;fill-rule:evenodd;"
d="M 75091.7,27348
75091.7,27603.9
74674.4,27603.9
74674.4,27348
Z" /> 
<path style="fill:#000000; fill-opacity:1.0; 
stroke:#000000; stroke-width:0; stroke-opacity:1; 
stroke-linecap:round; stroke-linejoin:round;fill-rule:evenodd;"
d="M 75091.7,27722
75091.7,27978
74674.4,27978
74674.4,27722
Z" /> 
<path style="fill:#000000; fill-opacity:1.0; 
stroke:#000000; stroke-width:0; stroke-opacity:1; 
stroke-linecap:round; stroke-linejoin:round;fill-rule:evenodd;"
d="M 75091.7,28096.1
75091.7,28352
74674.4,28352
74674.4,28096.1
Z" /> 
</g>
<g >
</g>
<g style="fill:#000000; fill-opacity:1.0; 
stroke:#000000; stroke-width:0; stroke-opacity:1; 
stroke-linecap:round; stroke-linejoin:round;">
<path style="fill:#000000; fill-opacity:1.0; 
stroke:#000000; stroke-width:0; stroke-opacity:1; 
stroke-linecap:round; stroke-linejoin:round;fill-rule:evenodd;"
d="M 74874.5,29024.9
74883.8,29026.3
74892.9,29028.5
74901.8,29031.7
74910.3,29035.7
74918.4,29040.6
74925.9,29046.2
74932.9,29052.5
74939.2,29059.5
74944.9,29067.1
74949.7,29075.1
74953.7,29083.6
74956.9,29092.5
74959.2,29101.7
74960.6,29111
74961,29120.4
74961,29479.6
74960.6,29489
74959.2,29498.3
74956.9,29507.5
74953.7,29516.3
74949.7,29524.9
74944.9,29532.9
74939.2,29540.5
74932.9,29547.5
74925.9,29553.8
74918.4,29559.4
74910.3,29564.3
74901.8,29568.3
74892.9,29571.5
74883.8,29573.7
74874.5,29575.1
74865.1,29575.6
74673.1,29575.6
74663.7,29575.1
74654.4,29573.7
74645.3,29571.5
74636.4,29568.3
74627.9,29564.3
74619.8,29559.4
74612.3,29553.8
74605.3,29547.5
74598.9,29540.5
74593.3,29532.9
74588.5,29524.9
74584.5,29516.3
74581.3,29507.5
74579,29498.3
74577.6,29489
74577.2,29479.6
74577.2,29120.4
74577.6,29111
74579,29101.7
74581.3,29092.5
74584.5,29083.6
74588.5,29075.1
74593.3,29067.1
74598.9,29059.5
74605.3,29052.5
74612.3,29046.2
74619.8,29040.6
74627.9,29035.7
74636.4,29031.7
74645.3,29028.5
74654.4,29026.3
74663.7,29024.9
74673.1,29024.4
74865.1,29024.4
Z" /> 
<path style="fill:#000000; fill-opacity:1.0; 
stroke:#000000; stroke-width:0; stroke-opacity:1; 
stroke-linecap:round; stroke-linejoin:round;fill-rule:evenodd;"
d="M 74136.3,29024.9
74145.6,29026.3
74154.7,29028.5
74163.6,29031.7
74172.1,29035.7
74180.2,29040.6
74187.7,29046.2
74194.7,29052.5
74201.1,29059.5
74206.7,29067.1
74211.5,29075.1
74215.5,29083.6
74218.7,29092.5
74221,29101.7
74222.4,29111
74222.8,29120.4
74222.8,29479.6
74222.4,29489
74221,29498.3
74218.7,29507.5
74215.5,29516.3
74211.5,29524.9
74206.7,29532.9
74201.1,29540.5
74194.7,29547.5
74187.7,29553.8
74180.2,29559.4
74172.1,29564.3
74163.6,29568.3
74154.7,29571.5
74145.6,29573.7
74136.3,29575.1
74126.9,29575.6
73934.9,29575.6
73925.5,29575.1
73916.2,29573.7
73907.1,29571.5
73898.2,29568.3
73889.7,29564.3
73881.6,29559.4
73874.1,29553.8
73867.1,29547.5
73860.8,29540.5
73855.1,29532.9
73850.3,29524.9
73846.3,29516.3
73843.1,29507.5
73840.8,29498.3
73839.4,29489
73839,29479.6
73839,29120.4
73839.4,29111
73840.8,29101.7
73843.1,29092.5
73846.3,29083.6
73850.3,29075.1
73855.1,29067.1
73860.8,29059.5
73867.1,29052.5
73874.1,29046.2
73881.6,29040.6
73889.7,29035.7
73898.2,29031.7
73907.1,29028.5
73916.2,29026.3
73925.5,29024.9
73934.9,29024.4
74126.9,29024.4
Z" /> 
</g>
<g >
</g>
<g style="fill:#000000; fill-opacity:1.0; 
stroke:#000000; stroke-width:0; stroke-opacity:1; 
stroke-linecap:round; stroke-linejoin:round;">
</g>
<g style="fill:#000000; fill-opacity:1.0; 
stroke:#000000; stroke-width:629.921; stroke-opacity:1; 
stroke-linecap:round; stroke-linejoin:round;">
</g>
<g style="fill:#000000; fill-opacity:0.0; 
stroke:#000000; stroke-width:629.921; stroke-opacity:1; 
stroke-linecap:round; stroke-linejoin:round;">
<path d="M69100 28900
L69100 28900
" />
<path d="M72100 31900
L72100 31900
" />
<path d="M70100 28900
L70100 28900
" />
<path d="M71100 31900
L71100 31900
" />
<path d="M71100 28900
L71100 28900
" />
<path d="M70100 31900
L70100 31900
" />
<path d="M72100 28900
L72100 28900
" />
</g>
<g style="fill:#000000; fill-opacity:0.0; 
stroke:#000000; stroke-width:0; stroke-opacity:1; 
stroke-linecap:round; stroke-linejoin:round;">
</g>
<g style="fill:#000000; fill-opacity:1.0; 
stroke:#000000; stroke-width:0; stroke-opacity:1; 
stroke-linecap:round; stroke-linejoin:round;">
<path style="fill:#000000; fill-opacity:1.0; 
stroke:#000000; stroke-width:0; stroke-opacity:1; 
stroke-linecap:round; stroke-linejoin:round;fill-rule:evenodd;"
d="M 69415,32215
68785,32215
68785,31585
69415,31585
Z" /> 
</g>
<g >
</g>
<g style="fill:#000000; fill-opacity:1.0; 
stroke:#000000; stroke-width:0; stroke-opacity:1; 
stroke-linecap:round; stroke-linejoin:round;">
<path style="fill:#000000; fill-opacity:1.0; 
stroke:#000000; stroke-width:0; stroke-opacity:1; 
stroke-linecap:round; stroke-linejoin:round;fill-rule:evenodd;"
d="M 74239,33777.6
74248.3,33779
74257.5,33781.3
74266.4,33784.5
74274.9,33788.5
74282.9,33793.3
74290.5,33798.9
74297.5,33805.3
74303.8,33812.3
74309.4,33819.8
74314.3,33827.9
74318.3,33836.4
74321.5,33845.3
74323.7,33854.4
74325.1,33863.7
74325.6,33873.1
74325.6,34065.1
74325.1,34074.5
74323.7,34083.8
74321.5,34092.9
74318.3,34101.8
74314.3,34110.3
74309.4,34118.4
74303.8,34125.9
74297.5,34132.9
74290.5,34139.2
74282.9,34144.9
74274.9,34149.7
74266.4,34153.7
74257.5,34156.9
74248.3,34159.2
74239,34160.6
74229.6,34161
73870.4,34161
73861,34160.6
73851.7,34159.2
73842.5,34156.9
73833.6,34153.7
73825.1,34149.7
73817.1,34144.9
73809.5,34139.2
73802.5,34132.9
73796.2,34125.9
73790.6,34118.4
73785.7,34110.3
73781.7,34101.8
73778.5,34092.9
73776.3,34083.8
73774.9,34074.5
73774.4,34065.1
73774.4,33873.1
73774.9,33863.7
73776.3,33854.4
73778.5,33845.3
73781.7,33836.4
73785.7,33827.9
73790.6,33819.8
73796.2,33812.3
73802.5,33805.3
73809.5,33798.9
73817.1,33793.3
73825.1,33788.5
73833.6,33784.5
73842.5,33781.3
73851.7,33779
73861,33777.6
73870.4,33777.2
74229.6,33777.2
Z" /> 
<path style="fill:#000000; fill-opacity:1.0; 
stroke:#000000; stroke-width:0; stroke-opacity:1; 
stroke-linecap:round; stroke-linejoin:round;fill-rule:evenodd;"
d="M 74239,33039.4
74248.3,33040.8
74257.5,33043.1
74266.4,33046.3
74274.9,33050.3
74282.9,33055.1
74290.5,33060.8
74297.5,33067.1
74303.8,33074.1
74309.4,33081.6
74314.3,33089.7
74318.3,33098.2
74321.5,33107.1
74323.7,33116.2
74325.1,33125.5
74325.6,33134.9
74325.6,33326.9
74325.1,33336.3
74323.7,33345.6
74321.5,33354.7
74318.3,33363.6
74314.3,33372.1
74309.4,33380.2
74303.8,33387.7
74297.5,33394.7
74290.5,33401.1
74282.9,33406.7
74274.9,33411.5
74266.4,33415.5
74257.5,33418.7
74248.3,33421
74239,33422.4
74229.6,33422.8
73870.4,33422.8
73861,33422.4
73851.7,33421
73842.5,33418.7
73833.6,33415.5
73825.1,33411.5
73817.1,33406.7
73809.5,33401.1
73802.5,33394.7
73796.2,33387.7
73790.6,33380.2
73785.7,33372.1
73781.7,33363.6
73778.5,33354.7
73776.3,33345.6
73774.9,33336.3
73774.4,33326.9
73774.4,33134.9
73774.9,33125.5
73776.3,33116.2
73778.5,33107.1
73781.7,33098.2
73785.7,33089.7
73790.6,33081.6
73796.2,33074.1
73802.5,33067.1
73809.5,33060.8
73817.1,33055.1
73825.1,33050.3
73833.6,33046.3
73842.5,33043.1
73851.7,33040.8
73861,33039.4
73870.4,33039
74229.6,33039
Z" /> 
</g>
<g >
</g>
<g style="fill:#000000; fill-opacity:1.0; 
stroke:#000000; stroke-width:0; stroke-opacity:1; 
stroke-linecap:round; stroke-linejoin:round;">
<path style="fill:#000000; fill-opacity:1.0; 
stroke:#000000; stroke-width:0; stroke-opacity:1; 
stroke-linecap:round; stroke-linejoin:round;fill-rule:evenodd;"
d="M 73339,33039.4
73348.3,33040.8
73357.5,33043.1
73366.4,33046.3
73374.9,33050.3
73382.9,33055.1
73390.5,33060.8
73397.5,33067.1
73403.8,33074.1
73409.4,33081.6
73414.3,33089.7
73418.3,33098.2
73421.5,33107.1
73423.7,33116.2
73425.1,33125.5
73425.6,33134.9
73425.6,33326.9
73425.1,33336.3
73423.7,33345.6
73421.5,33354.7
73418.3,33363.6
73414.3,33372.1
73409.4,33380.2
73403.8,33387.7
73397.5,33394.7
73390.5,33401.1
73382.9,33406.7
73374.9,33411.5
73366.4,33415.5
73357.5,33418.7
73348.3,33421
73339,33422.4
73329.6,33422.8
72970.4,33422.8
72961,33422.4
72951.7,33421
72942.5,33418.7
72933.6,33415.5
72925.1,33411.5
72917.1,33406.7
72909.5,33401.1
72902.5,33394.7
72896.2,33387.7
72890.6,33380.2
72885.7,33372.1
72881.7,33363.6
72878.5,33354.7
72876.3,33345.6
72874.9,33336.3
72874.4,33326.9
72874.4,33134.9
72874.9,33125.5
72876.3,33116.2
72878.5,33107.1
72881.7,33098.2
72885.7,33089.7
72890.6,33081.6
72896.2,33074.1
72902.5,33067.1
72909.5,33060.8
72917.1,33055.1
72925.1,33050.3
72933.6,33046.3
72942.5,33043.1
72951.7,33040.8
72961,33039.4
72970.4,33039
73329.6,33039
Z" /> 
<path style="fill:#000000; fill-opacity:1.0; 
stroke:#000000; stroke-width:0; stroke-opacity:1; 
stroke-linecap:round; stroke-linejoin:round;fill-rule:evenodd;"
d="M 73339,33777.6
73348.3,33779
73357.5,33781.3
73366.4,33784.5
73374.9,33788.5
73382.9,33793.3
73390.5,33798.9
73397.5,33805.3
73403.8,33812.3
73409.4,33819.8
73414.3,33827.9
73418.3,33836.4
73421.5,33845.3
73423.7,33854.4
73425.1,33863.7
73425.6,33873.1
73425.6,34065.1
73425.1,34074.5
73423.7,34083.8
73421.5,34092.9
73418.3,34101.8
73414.3,34110.3
73409.4,34118.4
73403.8,34125.9
73397.5,34132.9
73390.5,34139.2
73382.9,34144.9
73374.9,34149.7
73366.4,34153.7
73357.5,34156.9
73348.3,34159.2
73339,34160.6
73329.6,34161
72970.4,34161
72961,34160.6
72951.7,34159.2
72942.5,34156.9
72933.6,34153.7
72925.1,34149.7
72917.1,34144.9
72909.5,34139.2
72902.5,34132.9
72896.2,34125.9
72890.6,34118.4
72885.7,34110.3
72881.7,34101.8
72878.5,34092.9
72876.3,34083.8
72874.9,34074.5
72874.4,34065.1
72874.4,33873.1
72874.9,33863.7
72876.3,33854.4
72878.5,33845.3
72881.7,33836.4
72885.7,33827.9
72890.6,33819.8
72896.2,33812.3
72902.5,33805.3
72909.5,33798.9
72917.1,33793.3
72925.1,33788.5
72933.6,33784.5
72942.5,33781.3
72951.7,33779
72961,33777.6
72970.4,33777.2
73329.6,33777.2
Z" /> 
</g>
<g >
</g>
<g style="fill:#000000; fill-opacity:1.0; 
stroke:#000000; stroke-width:0; stroke-opacity:1; 
stroke-linecap:round; stroke-linejoin:round;">
<path style="fill:#000000; fill-opacity:1.0; 
stroke:#000000; stroke-width:0; stroke-opacity:1; 
stroke-linecap:round; stroke-linejoin:round;fill-rule:evenodd;"
d="M 69289,33877.6
69298.3,33879
69307.5,33881.3
69316.4,33884.5
69324.9,33888.5
69332.9,33893.3
69340.5,33898.9
69347.5,33905.3
69353.8,33912.3
69359.4,33919.8
69364.3,33927.9
69368.3,33936.4
69371.5,33945.3
69373.7,33954.4
69375.1,33963.7
69375.6,33973.1
69375.6,34165.1
69375.1,34174.5
69373.7,34183.8
69371.5,34192.9
69368.3,34201.8
69364.3,34210.3
69359.4,34218.4
69353.8,34225.9
69347.5,34232.9
69340.5,34239.2
69332.9,34244.9
69324.9,34249.7
69316.4,34253.7
69307.5,34256.9
69298.3,34259.2
69289,34260.6
69279.6,34261
68920.4,34261
68911,34260.6
68901.7,34259.2
68892.5,34256.9
68883.6,34253.7
68875.1,34249.7
68867.1,34244.9
68859.5,34239.2
68852.5,34232.9
68846.2,34225.9
68840.6,34218.4
68835.7,34210.3
68831.7,34201.8
68828.5,34192.9
68826.3,34183.8
68824.9,34174.5
68824.4,34165.1
68824.4,33973.1
68824.9,33963.7
68826.3,33954.4
68828.5,33945.3
68831.7,33936.4
68835.7,33927.9
68840.6,33919.8
68846.2,33912.3
68852.5,33905.3
68859.5,33898.9
68867.1,33893.3
68875.1,33888.5
68883.6,33884.5
68892.5,33881.3
68901.7,33879
68911,33877.6
68920.4,33877.2
69279.6,33877.2
Z" /> 
<path style="fill:#000000; fill-opacity:1.0; 
stroke:#000000; stroke-width:0; stroke-opacity:1; 
stroke-linecap:round; stroke-linejoin:round;fill-rule:evenodd;"
d="M 69289,33139.4
69298.3,33140.8
69307.5,33143.1
69316.4,33146.3
69324.9,33150.3
69332.9,33155.1
69340.5,33160.8
69347.5,33167.1
69353.8,33174.1
69359.4,33181.6
69364.3,33189.7
69368.3,33198.2
69371.5,33207.1
69373.7,33216.2
69375.1,33225.5
69375.6,33234.9
69375.6,33426.9
69375.1,33436.3
69373.7,33445.6
69371.5,33454.7
69368.3,33463.6
69364.3,33472.1
69359.4,33480.2
69353.8,33487.7
69347.5,33494.7
69340.5,33501.1
69332.9,33506.7
69324.9,33511.5
69316.4,33515.5
69307.5,33518.7
69298.3,33521
69289,33522.4
69279.6,33522.8
68920.4,33522.8
68911,33522.4
68901.7,33521
68892.5,33518.7
68883.6,33515.5
68875.1,33511.5
68867.1,33506.7
68859.5,33501.1
68852.5,33494.7
68846.2,33487.7
68840.6,33480.2
68835.7,33472.1
68831.7,33463.6
68828.5,33454.7
68826.3,33445.6
68824.9,33436.3
68824.4,33426.9
68824.4,33234.9
68824.9,33225.5
68826.3,33216.2
68828.5,33207.1
68831.7,33198.2
68835.7,33189.7
68840.6,33181.6
68846.2,33174.1
68852.5,33167.1
68859.5,33160.8
68867.1,33155.1
68875.1,33150.3
68883.6,33146.3
68892.5,33143.1
68901.7,33140.8
68911,33139.4
68920.4,33139
69279.6,33139
Z" /> 
</g>
<g >
</g>
<g style="fill:#000000; fill-opacity:1.0; 
stroke:#000000; stroke-width:0; stroke-opacity:1; 
stroke-linecap:round; stroke-linejoin:round;">
<path style="fill:#000000; fill-opacity:1.0; 
stroke:#000000; stroke-width:0; stroke-opacity:1; 
stroke-linecap:round; stroke-linejoin:round;fill-rule:evenodd;"
d="M 71039,33927.6
71048.3,33929
71057.5,33931.3
71066.4,33934.5
71074.9,33938.5
71082.9,33943.3
71090.5,33948.9
71097.5,33955.3
71103.8,33962.3
71109.4,33969.8
71114.3,33977.9
71118.3,33986.4
71121.5,33995.3
71123.7,34004.4
71125.1,34013.7
71125.6,34023.1
71125.6,34215.1
71125.1,34224.5
71123.7,34233.8
71121.5,34242.9
71118.3,34251.8
71114.3,34260.3
71109.4,34268.4
71103.8,34275.9
71097.5,34282.9
71090.5,34289.2
71082.9,34294.9
71074.9,34299.7
71066.4,34303.7
71057.5,34306.9
71048.3,34309.2
71039,34310.6
71029.6,34311
70670.4,34311
70661,34310.6
70651.7,34309.2
70642.5,34306.9
70633.6,34303.7
70625.1,34299.7
70617.1,34294.9
70609.5,34289.2
70602.5,34282.9
70596.2,34275.9
70590.6,34268.4
70585.7,34260.3
70581.7,34251.8
70578.5,34242.9
70576.3,34233.8
70574.9,34224.5
70574.4,34215.1
70574.4,34023.1
70574.9,34013.7
70576.3,34004.4
70578.5,33995.3
70581.7,33986.4
70585.7,33977.9
70590.6,33969.8
70596.2,33962.3
70602.5,33955.3
70609.5,33948.9
70617.1,33943.3
70625.1,33938.5
70633.6,33934.5
70642.5,33931.3
70651.7,33929
70661,33927.6
70670.4,33927.2
71029.6,33927.2
Z" /> 
<path style="fill:#000000; fill-opacity:1.0; 
stroke:#000000; stroke-width:0; stroke-opacity:1; 
stroke-linecap:round; stroke-linejoin:round;fill-rule:evenodd;"
d="M 71039,33189.4
71048.3,33190.8
71057.5,33193.1
71066.4,33196.3
71074.9,33200.3
71082.9,33205.1
71090.5,33210.8
71097.5,33217.1
71103.8,33224.1
71109.4,33231.6
71114.3,33239.7
71118.3,33248.2
71121.5,33257.1
71123.7,33266.2
71125.1,33275.5
71125.6,33284.9
71125.6,33476.9
71125.1,33486.3
71123.7,33495.6
71121.5,33504.7
71118.3,33513.6
71114.3,33522.1
71109.4,33530.2
71103.8,33537.7
71097.5,33544.7
71090.5,33551.1
71082.9,33556.7
71074.9,33561.5
71066.4,33565.5
71057.5,33568.7
71048.3,33571
71039,33572.4
71029.6,33572.8
70670.4,33572.8
70661,33572.4
70651.7,33571
70642.5,33568.7
70633.6,33565.5
70625.1,33561.5
70617.1,33556.7
70609.5,33551.1
70602.5,33544.7
70596.2,33537.7
70590.6,33530.2
70585.7,33522.1
70581.7,33513.6
70578.5,33504.7
70576.3,33495.6
70574.9,33486.3
70574.4,33476.9
70574.4,33284.9
70574.9,33275.5
70576.3,33266.2
70578.5,33257.1
70581.7,33248.2
70585.7,33239.7
70590.6,33231.6
70596.2,33224.1
70602.5,33217.1
70609.5,33210.8
70617.1,33205.1
70625.1,33200.3
70633.6,33196.3
70642.5,33193.1
70651.7,33190.8
70661,33189.4
70670.4,33189
71029.6,33189
Z" /> 
</g>
<g >
</g>
<g style="fill:#000000; fill-opacity:1.0; 
stroke:#000000; stroke-width:0; stroke-opacity:1; 
stroke-linecap:round; stroke-linejoin:round;">
<path style="fill:#000000; fill-opacity:1.0; 
stroke:#000000; stroke-width:0; stroke-opacity:1; 
stroke-linecap:round; stroke-linejoin:round;fill-rule:evenodd;"
d="M 67289,28727.6
67298.3,28729
67307.5,28731.3
67316.4,28734.5
67324.9,28738.5
67332.9,28743.3
67340.5,28748.9
67347.5,28755.3
67353.8,28762.3
67359.4,28769.8
67364.3,28777.9
67368.3,28786.4
67371.5,28795.3
67373.7,28804.4
67375.1,28813.7
67375.6,28823.1
67375.6,29015.1
67375.1,29024.5
67373.7,29033.8
67371.5,29042.9
67368.3,29051.8
67364.3,29060.3
67359.4,29068.4
67353.8,29075.9
67347.5,29082.9
67340.5,29089.2
67332.9,29094.9
67324.9,29099.7
67316.4,29103.7
67307.5,29106.9
67298.3,29109.2
67289,29110.6
67279.6,29111
66920.4,29111
66911,29110.6
66901.7,29109.2
66892.5,29106.9
66883.6,29103.7
66875.1,29099.7
66867.1,29094.9
66859.5,29089.2
66852.5,29082.9
66846.2,29075.9
66840.6,29068.4
66835.7,29060.3
66831.7,29051.8
66828.5,29042.9
66826.3,29033.8
66824.9,29024.5
66824.4,29015.1
66824.4,28823.1
66824.9,28813.7
66826.3,28804.4
66828.5,28795.3
66831.7,28786.4
66835.7,28777.9
66840.6,28769.8
66846.2,28762.3
66852.5,28755.3
66859.5,28748.9
66867.1,28743.3
66875.1,28738.5
66883.6,28734.5
66892.5,28731.3
66901.7,28729
66911,28727.6
66920.4,28727.2
67279.6,28727.2
Z" /> 
<path style="fill:#000000; fill-opacity:1.0; 
stroke:#000000; stroke-width:0; stroke-opacity:1; 
stroke-linecap:round; stroke-linejoin:round;fill-rule:evenodd;"
d="M 67289,27989.4
67298.3,27990.8
67307.5,27993.1
67316.4,27996.3
67324.9,28000.3
67332.9,28005.1
67340.5,28010.8
67347.5,28017.1
67353.8,28024.1
67359.4,28031.6
67364.3,28039.7
67368.3,28048.2
67371.5,28057.1
67373.7,28066.2
67375.1,28075.5
67375.6,28084.9
67375.6,28276.9
67375.1,28286.3
67373.7,28295.6
67371.5,28304.7
67368.3,28313.6
67364.3,28322.1
67359.4,28330.2
67353.8,28337.7
67347.5,28344.7
67340.5,28351.1
67332.9,28356.7
67324.9,28361.5
67316.4,28365.5
67307.5,28368.7
67298.3,28371
67289,28372.4
67279.6,28372.8
66920.4,28372.8
66911,28372.4
66901.7,28371
66892.5,28368.7
66883.6,28365.5
66875.1,28361.5
66867.1,28356.7
66859.5,28351.1
66852.5,28344.7
66846.2,28337.7
66840.6,28330.2
66835.7,28322.1
66831.7,28313.6
66828.5,28304.7
66826.3,28295.6
66824.9,28286.3
66824.4,28276.9
66824.4,28084.9
66824.9,28075.5
66826.3,28066.2
66828.5,28057.1
66831.7,28048.2
66835.7,28039.7
66840.6,28031.6
66846.2,28024.1
66852.5,28017.1
66859.5,28010.8
66867.1,28005.1
66875.1,28000.3
66883.6,27996.3
66892.5,27993.1
66901.7,27990.8
66911,27989.4
66920.4,27989
67279.6,27989
Z" /> 
</g>
<g >
</g>
<g style="fill:#000000; fill-opacity:1.0; 
stroke:#000000; stroke-width:0; stroke-opacity:1; 
stroke-linecap:round; stroke-linejoin:round;">
<path style="fill:#000000; fill-opacity:1.0; 
stroke:#000000; stroke-width:0; stroke-opacity:1; 
stroke-linecap:round; stroke-linejoin:round;fill-rule:evenodd;"
d="M 67907.5,33133.5
67592.5,33133.5
67592.5,32385.4
67907.5,32385.4
Z" /> 
<path style="fill:#000000; fill-opacity:1.0; 
stroke:#000000; stroke-width:0; stroke-opacity:1; 
stroke-linecap:round; stroke-linejoin:round;fill-rule:evenodd;"
d="M 68281.5,34314.6
67966.5,34314.6
67966.5,33566.5
68281.5,33566.5
Z" /> 
<path style="fill:#000000; fill-opacity:1.0; 
stroke:#000000; stroke-width:0; stroke-opacity:1; 
stroke-linecap:round; stroke-linejoin:round;fill-rule:evenodd;"
d="M 67533.5,34314.6
67218.5,34314.6
67218.5,33566.5
67533.5,33566.5
Z" /> 
</g>
<g >
</g>
<g style="fill:#000000; fill-opacity:1.0; 
stroke:#000000; stroke-width:0; stroke-opacity:1; 
stroke-linecap:round; stroke-linejoin:round;">
<path style="fill:#000000; fill-opacity:1.0; 
stroke:#000000; stroke-width:0; stroke-opacity:1; 
stroke-linecap:round; stroke-linejoin:round;fill-rule:evenodd;"
d="M 75939,30389.4
75948.3,30390.8
75957.5,30393.1
75966.4,30396.3
75974.9,30400.3
75982.9,30405.1
75990.5,30410.8
75997.5,30417.1
76003.8,30424.1
76009.4,30431.6
76014.3,30439.7
76018.3,30448.2
76021.5,30457.1
76023.7,30466.2
76025.1,30475.5
76025.6,30484.9
76025.6,30676.9
76025.1,30686.3
76023.7,30695.6
76021.5,30704.7
76018.3,30713.6
76014.3,30722.1
76009.4,30730.2
76003.8,30737.7
75997.5,30744.7
75990.5,30751.1
75982.9,30756.7
75974.9,30761.5
75966.4,30765.5
75957.5,30768.7
75948.3,30771
75939,30772.4
75929.6,30772.8
75570.4,30772.8
75561,30772.4
75551.7,30771
75542.5,30768.7
75533.6,30765.5
75525.1,30761.5
75517.1,30756.7
75509.5,30751.1
75502.5,30744.7
75496.2,30737.7
75490.6,30730.2
75485.7,30722.1
75481.7,30713.6
75478.5,30704.7
75476.3,30695.6
75474.9,30686.3
75474.4,30676.9
75474.4,30484.9
75474.9,30475.5
75476.3,30466.2
75478.5,30457.1
75481.7,30448.2
75485.7,30439.7
75490.6,30431.6
75496.2,30424.1
75502.5,30417.1
75509.5,30410.8
75517.1,30405.1
75525.1,30400.3
75533.6,30396.3
75542.5,30393.1
75551.7,30390.8
75561,30389.4
75570.4,30389
75929.6,30389
Z" /> 
<path style="fill:#000000; fill-opacity:1.0; 
stroke:#000000; stroke-width:0; stroke-opacity:1; 
stroke-linecap:round; stroke-linejoin:round;fill-rule:evenodd;"
d="M 75939,31127.6
75948.3,31129
75957.5,31131.3
75966.4,31134.5
75974.9,31138.5
75982.9,31143.3
75990.5,31148.9
75997.5,31155.3
76003.8,31162.3
76009.4,31169.8
76014.3,31177.9
76018.3,31186.4
76021.5,31195.3
76023.7,31204.4
76025.1,31213.7
76025.6,31223.1
76025.6,31415.1
76025.1,31424.5
76023.7,31433.8
76021.5,31442.9
76018.3,31451.8
76014.3,31460.3
76009.4,31468.4
76003.8,31475.9
75997.5,31482.9
75990.5,31489.2
75982.9,31494.9
75974.9,31499.7
75966.4,31503.7
75957.5,31506.9
75948.3,31509.2
75939,31510.6
75929.6,31511
75570.4,31511
75561,31510.6
75551.7,31509.2
75542.5,31506.9
75533.6,31503.7
75525.1,31499.7
75517.1,31494.9
75509.5,31489.2
75502.5,31482.9
75496.2,31475.9
75490.6,31468.4
75485.7,31460.3
75481.7,31451.8
75478.5,31442.9
75476.3,31433.8
75474.9,31424.5
75474.4,31415.1
75474.4,31223.1
75474.9,31213.7
75476.3,31204.4
75478.5,31195.3
75481.7,31186.4
75485.7,31177.9
75490.6,31169.8
75496.2,31162.3
75502.5,31155.3
75509.5,31148.9
75517.1,31143.3
75525.1,31138.5
75533.6,31134.5
75542.5,31131.3
75551.7,31129
75561,31127.6
75570.4,31127.2
75929.6,31127.2
Z" /> 
</g>
<g >
</g>
<g style="fill:#000000; fill-opacity:1.0; 
stroke:#000000; stroke-width:0; stroke-opacity:1; 
stroke-linecap:round; stroke-linejoin:round;">
<path style="fill:#000000; fill-opacity:1.0; 
stroke:#000000; stroke-width:0; stroke-opacity:1; 
stroke-linecap:round; stroke-linejoin:round;fill-rule:evenodd;"
d="M 71074.5,27424.9
71083.8,27426.3
71092.9,27428.5
71101.8,27431.7
71110.3,27435.7
71118.4,27440.6
71125.9,27446.2
71132.9,27452.5
71139.2,27459.5
71144.9,27467.1
71149.7,27475.1
71153.7,27483.6
71156.9,27492.5
71159.2,27501.7
71160.6,27511
71161,27520.4
71161,27879.6
71160.6,27889
71159.2,27898.3
71156.9,27907.5
71153.7,27916.3
71149.7,27924.9
71144.9,27932.9
71139.2,27940.5
71132.9,27947.5
71125.9,27953.8
71118.4,27959.4
71110.3,27964.3
71101.8,27968.3
71092.9,27971.5
71083.8,27973.7
71074.5,27975.1
71065.1,27975.6
70873.1,27975.6
70863.7,27975.1
70854.4,27973.7
70845.3,27971.5
70836.4,27968.3
70827.9,27964.3
70819.8,27959.4
70812.3,27953.8
70805.3,27947.5
70798.9,27940.5
70793.3,27932.9
70788.5,27924.9
70784.5,27916.3
70781.3,27907.5
70779,27898.3
70777.6,27889
70777.2,27879.6
70777.2,27520.4
70777.6,27511
70779,27501.7
70781.3,27492.5
70784.5,27483.6
70788.5,27475.1
70793.3,27467.1
70798.9,27459.5
70805.3,27452.5
70812.3,27446.2
70819.8,27440.6
70827.9,27435.7
70836.4,27431.7
70845.3,27428.5
70854.4,27426.3
70863.7,27424.9
70873.1,27424.4
71065.1,27424.4
Z" /> 
<path style="fill:#000000; fill-opacity:1.0; 
stroke:#000000; stroke-width:0; stroke-opacity:1; 
stroke-linecap:round; stroke-linejoin:round;fill-rule:evenodd;"
d="M 70336.3,27424.9
70345.6,27426.3
70354.7,27428.5
70363.6,27431.7
70372.1,27435.7
70380.2,27440.6
70387.7,27446.2
70394.7,27452.5
70401.1,27459.5
70406.7,27467.1
70411.5,27475.1
70415.5,27483.6
70418.7,27492.5
70421,27501.7
70422.4,27511
70422.8,27520.4
70422.8,27879.6
70422.4,27889
70421,27898.3
70418.7,27907.5
70415.5,27916.3
70411.5,27924.9
70406.7,27932.9
70401.1,27940.5
70394.7,27947.5
70387.7,27953.8
70380.2,27959.4
70372.1,27964.3
70363.6,27968.3
70354.7,27971.5
70345.6,27973.7
70336.3,27975.1
70326.9,27975.6
70134.9,27975.6
70125.5,27975.1
70116.2,27973.7
70107.1,27971.5
70098.2,27968.3
70089.7,27964.3
70081.6,27959.4
70074.1,27953.8
70067.1,27947.5
70060.8,27940.5
70055.1,27932.9
70050.3,27924.9
70046.3,27916.3
70043.1,27907.5
70040.8,27898.3
70039.4,27889
70039,27879.6
70039,27520.4
70039.4,27511
70040.8,27501.7
70043.1,27492.5
70046.3,27483.6
70050.3,27475.1
70055.1,27467.1
70060.8,27459.5
70067.1,27452.5
70074.1,27446.2
70081.6,27440.6
70089.7,27435.7
70098.2,27431.7
70107.1,27428.5
70116.2,27426.3
70125.5,27424.9
70134.9,27424.4
70326.9,27424.4
Z" /> 
</g>
<g >
</g>
<g style="fill:#000000; fill-opacity:1.0; 
stroke:#000000; stroke-width:0; stroke-opacity:1; 
stroke-linecap:round; stroke-linejoin:round;">
<circle cx="77000" cy="34350" r="157.48" /> 
</g>
<g style="fill:#000000; fill-opacity:1.0; 
stroke:#000000; stroke-width:39.3701; stroke-opacity:1; 
stroke-linecap:round; stroke-linejoin:round;">
</g>
<g style="fill:#000000; fill-opacity:1.0; 
stroke:#000000; stroke-width:0; stroke-opacity:1; 
stroke-linecap:round; stroke-linejoin:round;">
<circle cx="76250" cy="26800" r="157.48" /> 
</g>
<g style="fill:#000000; fill-opacity:1.0; 
stroke:#000000; stroke-width:39.3701; stroke-opacity:1; 
stroke-linecap:round; stroke-linejoin:round;">
</g>
<g style="fill:#000000; fill-opacity:1.0; 
stroke:#000000; stroke-width:0; stroke-opacity:1; 
stroke-linecap:round; stroke-linejoin:round;">
<circle cx="76987.4" cy="33312.6" r="157.48" /> 
</g>
<g style="fill:#000000; fill-opacity:1.0; 
stroke:#000000; stroke-width:39.3701; stroke-opacity:1; 
stroke-linecap:round; stroke-linejoin:round;">
</g>
<g style="fill:#000000; fill-opacity:1.0; 
stroke:#000000; stroke-width:0; stroke-opacity:1; 
stroke-linecap:round; stroke-linejoin:round;">
<circle cx="77200" cy="27850" r="157.48" /> 
</g>
<g style="fill:#000000; fill-opacity:1.0; 
stroke:#000000; stroke-width:39.3701; stroke-opacity:1; 
stroke-linecap:round; stroke-linejoin:round;">
</g>
<g style="fill:#000000; fill-opacity:1.0; 
stroke:#000000; stroke-width:0; stroke-opacity:1; 
stroke-linecap:round; stroke-linejoin:round;">
<circle cx="72000" cy="34100" r="157.48" /> 
</g>
<g style="fill:#000000; fill-opacity:1.0; 
stroke:#000000; stroke-width:39.3701; stroke-opacity:1; 
stroke-linecap:round; stroke-linejoin:round;">
</g>
<g >
</g>
<g style="fill:#000000; fill-opacity:1.0; 
stroke:#000000; stroke-width:39.3701; stroke-opacity:1; 
stroke-linecap:round; stroke-linejoin:round;">
</g>
<g style="fill:#000000; fill-opacity:1.0; 
stroke:#000000; stroke-width:98.4252; stroke-opacity:1; 
stroke-linecap:round; stroke-linejoin:round;">
</g>
<g style="fill:#000000; fill-opacity:0.0; 
stroke:#000000; stroke-width:98.4252; stroke-opacity:1; 
stroke-linecap:round; stroke-linejoin:round;">
<path d="M67100 28180
L67100 27050
" />
<path d="M67100 27050
L67400 26750
" />
<path d="M67400 26750
L70850 26750
" />
<path d="M70969 26869
L70969 27700
" />
<path d="M70850 26750
L70969 26869
" />
<path d="M71100 28550
L71100 28900
" />
<path d="M71400 28250
L71100 28550
" />
<path d="M71400 27800
L71400 28250
" />
<path d="M71300 27700
L71400 27800
" />
<path d="M70969 27700
L71300 27700
" />
<path d="M75780 31350
L75750 31319
" />
<path d="M75750 31319
L75750 32600
" />
<path d="M75119 33230
L74050 33230
" />
<path d="M75750 32600
L75119 33230
" />
<path d="M75750 33700
L75750 32600
" />
<path d="M75750 34100
L75750 33700
" />
<path d="M76000 34350
L75750 34100
" />
<path d="M76000 34350
L77000 34350
" />
<path d="M74016 27475
L74883 27475
" />
<path d="M69000 32900
L69100 33000
" />
<path d="M68400 32750
L68550 32900
" />
<path d="M69100 33000
L69100 33330
" />
<path d="M68400 32150
L68400 32750
" />
<path d="M68100 31850
L68400 32150
" />
<path d="M68550 32900
L69000 32900
" />
<path d="M68100 29100
L68100 31850
" />
<path d="M68300 28900
L68100 29100
" />
<path d="M69100 28900
L68300 28900
" />
<path d="M74883 27016
L74883 27475
" />
<path d="M75050 26850
L74883 27016
" />
<path d="M76200 26850
L75050 26850
" />
<path d="M76250 26800
L76200 26850
" />
<path d="M75750 30580
L75750 29650
" />
<path d="M75400 29300
L74769 29300
" />
<path d="M75725 29625
L75400 29300
" />
<path d="M75750 29650
L75725 29625
" />
<path d="M74883 27850
L75600 27850
" />
<path d="M75600 27850
L75750 28000
" />
<path d="M77200 27850
L75950 27850
" />
<path d="M75950 27850
L75750 28050
" />
<path d="M75750 28050
L75750 29650
" />
<path d="M75750 28000
L75750 28050
" />
<path d="M76987 30837
L76987 33312
" />
<path d="M76730 30580
L76987 30837
" />
<path d="M75750 30580
L76730 30580
" />
<path d="M68124 33940
L68390 33940
" />
<path d="M68519 34069
L69100 34069
" />
<path d="M68390 33940
L68519 34069
" />
<path d="M72419 33230
L73150 33230
" />
<path d="M72269 33380
L72419 33230
" />
<path d="M70850 33380
L72269 33380
" />
<path d="M70430 33380
L70850 33380
" />
<path d="M70100 33050
L70430 33380
" />
<path d="M70100 31900
L70100 33050
" />
<path d="M74050 33969
L73150 33969
" />
<path d="M72419 33969
L73150 33969
" />
<path d="M72288 34100
L72419 33969
" />
<path d="M72000 34100
L72288 34100
" />
<path d="M74016 29286
L74030 29300
" />
<path d="M74016 28224
L74016 29286
" />
<path d="M73450 29300
L74030 29300
" />
<path d="M72800 29950
L73450 29300
" />
<path d="M71100 31900
L71100 31050
" />
<path d="M71100 31050
L72100 30050
" />
<path d="M72800 29950
L72100 29950
" />
<path d="M72100 29950
L72100 28900
" />
<path d="M72100 30050
L72100 29950
" />
<path d="M70100 28700
L70100 28900
" />
<path d="M69800 28400
L70100 28700
" />
<path d="M69800 27800
L69800 28400
" />
<path d="M69900 27700
L69800 27800
" />
<path d="M70230 27700
L69900 27700
" />
<path d="M67375 34825
L67400 34850
" />
<path d="M67375 33940
L67375 34825
" />
<path d="M64550 34850
L67400 34850
" />
<path d="M70850 34700
L70850 34119
" />
<path d="M70700 34850
L70850 34700
" />
<path d="M67400 34850
L70700 34850
" />
<path d="M62002 30297
L62002 34402
" />
<path d="M62450 34850
L64550 34850
" />
<path d="M62002 34402
L62450 34850
" />
<path d="M67080 28900
L67100 28919
" />
<path d="M63400 28900
L67080 28900
" />
<path d="M67750 32759
L67750 32350
" />
<path d="M67100 31700
L67100 28919
" />
<path d="M67750 32350
L67100 31700
" />
</g>
<g >
</g>
</g>
<g style="fill:#FFFFFF; fill-opacity:0.0; 
stroke:#FFFFFF; stroke-width:98.4252; stroke-opacity:1; 
stroke-linecap:round; stroke-linejoin:round;">
</g>
<g style="fill:#FFFFFF; fill-opacity:1.0; 
stroke:#FFFFFF; stroke-width:0; stroke-opacity:1; 
stroke-linecap:round; stroke-linejoin:round;">
<circle cx="77000" cy="34350" r="78.7402" /> 
</g>
<g style="fill:#FFFFFF; fill-opacity:1.0; 
stroke:#FFFFFF; stroke-width:39.3701; stroke-opacity:1; 
stroke-linecap:round; stroke-linejoin:round;">
</g>
<g style="fill:#FFFFFF; fill-opacity:1.0; 
stroke:#FFFFFF; stroke-width:0; stroke-opacity:1; 
stroke-linecap:round; stroke-linejoin:round;">
<circle cx="76250" cy="26800" r="78.7402" /> 
</g>
<g style="fill:#FFFFFF; fill-opacity:1.0; 
stroke:#FFFFFF; stroke-width:39.3701; stroke-opacity:1; 
stroke-linecap:round; stroke-linejoin:round;">
</g>
<g style="fill:#FFFFFF; fill-opacity:1.0; 
stroke:#FFFFFF; stroke-width:0; stroke-opacity:1; 
stroke-linecap:round; stroke-linejoin:round;">
<circle cx="76987.4" cy="33312.6" r="78.7402" /> 
</g>
<g style="fill:#FFFFFF; fill-opacity:1.0; 
stroke:#FFFFFF; stroke-width:39.3701; stroke-opacity:1; 
stroke-linecap:round; stroke-linejoin:round;">
</g>
<g style="fill:#FFFFFF; fill-opacity:1.0; 
stroke:#FFFFFF; stroke-width:0; stroke-opacity:1; 
stroke-linecap:round; stroke-linejoin:round;">
<circle cx="77200" cy="27850" r="78.7402" /> 
</g>
<g style="fill:#FFFFFF; fill-opacity:1.0; 
stroke:#FFFFFF; stroke-width:39.3701; stroke-opacity:1; 
stroke-linecap:round; stroke-linejoin:round;">
</g>
<g style="fill:#FFFFFF; fill-opacity:1.0; 
stroke:#FFFFFF; stroke-width:0; stroke-opacity:1; 
stroke-linecap:round; stroke-linejoin:round;">
<circle cx="72000" cy="34100" r="78.7402" /> 
</g>
<g style="fill:#FFFFFF; fill-opacity:1.0; 
stroke:#FFFFFF; stroke-width:39.3701; stroke-opacity:1; 
stroke-linecap:round; stroke-linejoin:round;">
</g>
<g style="fill:#FFFFFF; fill-opacity:1.0; 
stroke:#FFFFFF; stroke-width:0; stroke-opacity:1; 
stroke-linecap:round; stroke-linejoin:round;">
<circle cx="78450" cy="26850" r="196.85" /> 
</g>
<g style="fill:#FFFFFF; fill-opacity:1.0; 
stroke:#FFFFFF; stroke-width:39.3701; stroke-opacity:1; 
stroke-linecap:round; stroke-linejoin:round;">
</g>
<g style="fill:#FFFFFF; fill-opacity:1.0; 
stroke:#FFFFFF; stroke-width:0; stroke-opacity:1; 
stroke-linecap:round; stroke-linejoin:round;">
<circle cx="78450" cy="27850" r="196.85" /> 
</g>
<g style="fill:#FFFFFF; fill-opacity:1.0; 
stroke:#FFFFFF; stroke-width:39.3701; stroke-opacity:1; 
stroke-linecap:round; stroke-linejoin:round;">
</g>
<g style="fill:#FFFFFF; fill-opacity:1.0; 
stroke:#FFFFFF; stroke-width:0; stroke-opacity:1; 
stroke-linecap:round; stroke-linejoin:round;">
<circle cx="78400" cy="33350" r="196.85" /> 
</g>
<g style="fill:#FFFFFF; fill-opacity:1.0; 
stroke:#FFFFFF; stroke-width:39.3701; stroke-opacity:1; 
stroke-linecap:round; stroke-linejoin:round;">
</g>
<g style="fill:#FFFFFF; fill-opacity:1.0; 
stroke:#FFFFFF; stroke-width:0; stroke-opacity:1; 
stroke-linecap:round; stroke-linejoin:round;">
<circle cx="78400" cy="34350" r="196.85" /> 
</g>
<g style="fill:#FFFFFF; fill-opacity:1.0; 
stroke:#FFFFFF; stroke-width:39.3701; stroke-opacity:1; 
stroke-linecap:round; stroke-linejoin:round;">
</g>
<g style="fill:#FFFFFF; fill-opacity:1.0; 
stroke:#FFFFFF; stroke-width:0; stroke-opacity:1; 
stroke-linecap:round; stroke-linejoin:round;">
<circle cx="63400" cy="31695.3" r="216.535" /> 
</g>
<g style="fill:#FFFFFF; fill-opacity:1.0; 
stroke:#FFFFFF; stroke-width:39.3701; stroke-opacity:1; 
stroke-linecap:round; stroke-linejoin:round;">
</g>
<g style="fill:#FFFFFF; fill-opacity:1.0; 
stroke:#FFFFFF; stroke-width:0; stroke-opacity:1; 
stroke-linecap:round; stroke-linejoin:round;">
<circle cx="62002.4" cy="30297.6" r="216.535" /> 
</g>
<g style="fill:#FFFFFF; fill-opacity:1.0; 
stroke:#FFFFFF; stroke-width:39.3701; stroke-opacity:1; 
stroke-linecap:round; stroke-linejoin:round;">
</g>
<g style="fill:#FFFFFF; fill-opacity:1.0; 
stroke:#FFFFFF; stroke-width:0; stroke-opacity:1; 
stroke-linecap:round; stroke-linejoin:round;">
<circle cx="63400" cy="28900" r="216.535" /> 
</g>
<g style="fill:#FFFFFF; fill-opacity:1.0; 
stroke:#FFFFFF; stroke-width:39.3701; stroke-opacity:1; 
stroke-linecap:round; stroke-linejoin:round;">
</g>
<g style="fill:#FFFFFF; fill-opacity:1.0; 
stroke:#FFFFFF; stroke-width:0; stroke-opacity:1; 
stroke-linecap:round; stroke-linejoin:round;">
<circle cx="69100" cy="28900" r="157.48" /> 
</g>
<g style="fill:#FFFFFF; fill-opacity:1.0; 
stroke:#FFFFFF; stroke-width:39.3701; stroke-opacity:1; 
stroke-linecap:round; stroke-linejoin:round;">
</g>
<g style="fill:#FFFFFF; fill-opacity:1.0; 
stroke:#FFFFFF; stroke-width:0; stroke-opacity:1; 
stroke-linecap:round; stroke-linejoin:round;">
<circle cx="72100" cy="31900" r="157.48" /> 
</g>
<g style="fill:#FFFFFF; fill-opacity:1.0; 
stroke:#FFFFFF; stroke-width:39.3701; stroke-opacity:1; 
stroke-linecap:round; stroke-linejoin:round;">
</g>
<g style="fill:#FFFFFF; fill-opacity:1.0; 
stroke:#FFFFFF; stroke-width:0; stroke-opacity:1; 
stroke-linecap:round; stroke-linejoin:round;">
<circle cx="70100" cy="28900" r="157.48" /> 
</g>
<g style="fill:#FFFFFF; fill-opacity:1.0; 
stroke:#FFFFFF; stroke-width:39.3701; stroke-opacity:1; 
stroke-linecap:round; stroke-linejoin:round;">
</g>
<g style="fill:#FFFFFF; fill-opacity:1.0; 
stroke:#FFFFFF; stroke-width:0; stroke-opacity:1; 
stroke-linecap:round; stroke-linejoin:round;">
<circle cx="71100" cy="31900" r="157.48" /> 
</g>
<g style="fill:#FFFFFF; fill-opacity:1.0; 
stroke:#FFFFFF; stroke-width:39.3701; stroke-opacity:1; 
stroke-linecap:round; stroke-linejoin:round;">
</g>
<g style="fill:#FFFFFF; fill-opacity:1.0; 
stroke:#FFFFFF; stroke-width:0; stroke-opacity:1; 
stroke-linecap:round; stroke-linejoin:round;">
<circle cx="71100" cy="28900" r="157.48" /> 
</g>
<g style="fill:#FFFFFF; fill-opacity:1.0; 
stroke:#FFFFFF; stroke-width:39.3701; stroke-opacity:1; 
stroke-linecap:round; stroke-linejoin:round;">
</g>
<g style="fill:#FFFFFF; fill-opacity:1.0; 
stroke:#FFFFFF; stroke-width:0; stroke-opacity:1; 
stroke-linecap:round; stroke-linejoin:round;">
<circle cx="70100" cy="31900" r="157.48" /> 
</g>
<g style="fill:#FFFFFF; fill-opacity:1.0; 
stroke:#FFFFFF; stroke-width:39.3701; stroke-opacity:1; 
stroke-linecap:round; stroke-linejoin:round;">
</g>
<g style="fill:#FFFFFF; fill-opacity:1.0; 
stroke:#FFFFFF; stroke-width:0; stroke-opacity:1; 
stroke-linecap:round; stroke-linejoin:round;">
<circle cx="72100" cy="28900" r="157.48" /> 
</g>
<g style="fill:#FFFFFF; fill-opacity:1.0; 
stroke:#FFFFFF; stroke-width:39.3701; stroke-opacity:1; 
stroke-linecap:round; stroke-linejoin:round;">
</g>
<g style="fill:#FFFFFF; fill-opacity:1.0; 
stroke:#FFFFFF; stroke-width:0; stroke-opacity:1; 
stroke-linecap:round; stroke-linejoin:round;">
<circle cx="69100" cy="31900" r="157.48" /> 
</g>
<g style="fill:#FFFFFF; fill-opacity:1.0; 
stroke:#FFFFFF; stroke-width:39.3701; stroke-opacity:1; 
stroke-linecap:round; stroke-linejoin:round;">
</g>
<g style="fill:#000000; fill-opacity:1.0; 
stroke:#000000; stroke-width:39.3701; stroke-opacity:1; 
stroke-linecap:round; stroke-linejoin:round;">
</g> 
</svg>
