%TF.GenerationSoftware,KiCad,Pcbnew,5.1.6-c6e7f7d~87~ubuntu18.04.1*%
%TF.CreationDate,2020-11-27T17:36:11+05:00*%
%TF.ProjectId,NO2_signal_conditioner,4e4f325f-7369-4676-9e61-6c5f636f6e64,rev?*%
%TF.SameCoordinates,Original*%
%TF.FileFunction,Soldermask,Top*%
%TF.FilePolarity,Negative*%
%FSLAX46Y46*%
G04 Gerber Fmt 4.6, Leading zero omitted, Abs format (unit mm)*
G04 Created by KiCad (PCBNEW 5.1.6-c6e7f7d~87~ubuntu18.04.1) date 2020-11-27 17:36:11*
%MOMM*%
%LPD*%
G01*
G04 APERTURE LIST*
%TA.AperFunction,Profile*%
%ADD10C,0.254000*%
%TD*%
%TA.AperFunction,Profile*%
%ADD11C,0.250000*%
%TD*%
%ADD12O,1.800000X1.800000*%
%ADD13R,1.800000X1.800000*%
%ADD14O,1.700000X1.700000*%
%ADD15O,1.700000X2.200000*%
%ADD16R,1.160000X0.750000*%
%ADD17R,1.700000X1.700000*%
%ADD18R,0.900000X2.000000*%
G04 APERTURE END LIST*
D10*
X154940000Y-91440000D02*
G75*
G02*
X152400000Y-88900000I0J2540000D01*
G01*
X152400000Y-66040000D02*
G75*
G02*
X154940000Y-63500000I2540000J0D01*
G01*
X200660000Y-63500000D02*
G75*
G02*
X203200000Y-66040000I0J-2540000D01*
G01*
X203200000Y-88900000D02*
G75*
G02*
X200660000Y-91440000I-2540000J0D01*
G01*
X152400000Y-88900000D02*
X152400000Y-66040000D01*
X200660000Y-91440000D02*
X154940000Y-91440000D01*
D11*
X203200000Y-66040000D02*
X203200000Y-88900000D01*
D10*
X154940000Y-63500000D02*
X200660000Y-63500000D01*
D12*
%TO.C,J3*%
X199263000Y-68199000D03*
D13*
X199263000Y-70739000D03*
%TD*%
D12*
%TO.C,J2*%
X199136000Y-84709000D03*
D13*
X199136000Y-87249000D03*
%TD*%
D14*
%TO.C,J1*%
X161036000Y-80506000D03*
X157486000Y-76956000D03*
D15*
X161036000Y-73406000D03*
%TD*%
D16*
%TO.C,U2*%
X188003000Y-71689000D03*
X188003000Y-69789000D03*
X190203000Y-69789000D03*
X190203000Y-70739000D03*
X190203000Y-71689000D03*
%TD*%
%TO.C,C3*%
G36*
G01*
X189376000Y-74903250D02*
X189376000Y-73940750D01*
G75*
G02*
X189644750Y-73672000I268750J0D01*
G01*
X190182250Y-73672000D01*
G75*
G02*
X190451000Y-73940750I0J-268750D01*
G01*
X190451000Y-74903250D01*
G75*
G02*
X190182250Y-75172000I-268750J0D01*
G01*
X189644750Y-75172000D01*
G75*
G02*
X189376000Y-74903250I0J268750D01*
G01*
G37*
G36*
G01*
X187501000Y-74903250D02*
X187501000Y-73940750D01*
G75*
G02*
X187769750Y-73672000I268750J0D01*
G01*
X188307250Y-73672000D01*
G75*
G02*
X188576000Y-73940750I0J-268750D01*
G01*
X188576000Y-74903250D01*
G75*
G02*
X188307250Y-75172000I-268750J0D01*
G01*
X187769750Y-75172000D01*
G75*
G02*
X187501000Y-74903250I0J268750D01*
G01*
G37*
%TD*%
D14*
%TO.C,U1*%
X175514000Y-73406000D03*
X183134000Y-81026000D03*
X178054000Y-73406000D03*
X180594000Y-81026000D03*
X180594000Y-73406000D03*
X178054000Y-81026000D03*
X183134000Y-73406000D03*
D17*
X175514000Y-81026000D03*
%TD*%
%TO.C,R5*%
G36*
G01*
X187605750Y-85744000D02*
X188568250Y-85744000D01*
G75*
G02*
X188837000Y-86012750I0J-268750D01*
G01*
X188837000Y-86550250D01*
G75*
G02*
X188568250Y-86819000I-268750J0D01*
G01*
X187605750Y-86819000D01*
G75*
G02*
X187337000Y-86550250I0J268750D01*
G01*
X187337000Y-86012750D01*
G75*
G02*
X187605750Y-85744000I268750J0D01*
G01*
G37*
G36*
G01*
X187605750Y-83869000D02*
X188568250Y-83869000D01*
G75*
G02*
X188837000Y-84137750I0J-268750D01*
G01*
X188837000Y-84675250D01*
G75*
G02*
X188568250Y-84944000I-268750J0D01*
G01*
X187605750Y-84944000D01*
G75*
G02*
X187337000Y-84675250I0J268750D01*
G01*
X187337000Y-84137750D01*
G75*
G02*
X187605750Y-83869000I268750J0D01*
G01*
G37*
%TD*%
%TO.C,R4*%
G36*
G01*
X186282250Y-84944000D02*
X185319750Y-84944000D01*
G75*
G02*
X185051000Y-84675250I0J268750D01*
G01*
X185051000Y-84137750D01*
G75*
G02*
X185319750Y-83869000I268750J0D01*
G01*
X186282250Y-83869000D01*
G75*
G02*
X186551000Y-84137750I0J-268750D01*
G01*
X186551000Y-84675250D01*
G75*
G02*
X186282250Y-84944000I-268750J0D01*
G01*
G37*
G36*
G01*
X186282250Y-86819000D02*
X185319750Y-86819000D01*
G75*
G02*
X185051000Y-86550250I0J268750D01*
G01*
X185051000Y-86012750D01*
G75*
G02*
X185319750Y-85744000I268750J0D01*
G01*
X186282250Y-85744000D01*
G75*
G02*
X186551000Y-86012750I0J-268750D01*
G01*
X186551000Y-86550250D01*
G75*
G02*
X186282250Y-86819000I-268750J0D01*
G01*
G37*
%TD*%
%TO.C,R3*%
G36*
G01*
X175032750Y-85998000D02*
X175995250Y-85998000D01*
G75*
G02*
X176264000Y-86266750I0J-268750D01*
G01*
X176264000Y-86804250D01*
G75*
G02*
X175995250Y-87073000I-268750J0D01*
G01*
X175032750Y-87073000D01*
G75*
G02*
X174764000Y-86804250I0J268750D01*
G01*
X174764000Y-86266750D01*
G75*
G02*
X175032750Y-85998000I268750J0D01*
G01*
G37*
G36*
G01*
X175032750Y-84123000D02*
X175995250Y-84123000D01*
G75*
G02*
X176264000Y-84391750I0J-268750D01*
G01*
X176264000Y-84929250D01*
G75*
G02*
X175995250Y-85198000I-268750J0D01*
G01*
X175032750Y-85198000D01*
G75*
G02*
X174764000Y-84929250I0J268750D01*
G01*
X174764000Y-84391750D01*
G75*
G02*
X175032750Y-84123000I268750J0D01*
G01*
G37*
%TD*%
%TO.C,R2*%
G36*
G01*
X179477750Y-86125000D02*
X180440250Y-86125000D01*
G75*
G02*
X180709000Y-86393750I0J-268750D01*
G01*
X180709000Y-86931250D01*
G75*
G02*
X180440250Y-87200000I-268750J0D01*
G01*
X179477750Y-87200000D01*
G75*
G02*
X179209000Y-86931250I0J268750D01*
G01*
X179209000Y-86393750D01*
G75*
G02*
X179477750Y-86125000I268750J0D01*
G01*
G37*
G36*
G01*
X179477750Y-84250000D02*
X180440250Y-84250000D01*
G75*
G02*
X180709000Y-84518750I0J-268750D01*
G01*
X180709000Y-85056250D01*
G75*
G02*
X180440250Y-85325000I-268750J0D01*
G01*
X179477750Y-85325000D01*
G75*
G02*
X179209000Y-85056250I0J268750D01*
G01*
X179209000Y-84518750D01*
G75*
G02*
X179477750Y-84250000I268750J0D01*
G01*
G37*
%TD*%
%TO.C,R1*%
G36*
G01*
X169952750Y-72917000D02*
X170915250Y-72917000D01*
G75*
G02*
X171184000Y-73185750I0J-268750D01*
G01*
X171184000Y-73723250D01*
G75*
G02*
X170915250Y-73992000I-268750J0D01*
G01*
X169952750Y-73992000D01*
G75*
G02*
X169684000Y-73723250I0J268750D01*
G01*
X169684000Y-73185750D01*
G75*
G02*
X169952750Y-72917000I268750J0D01*
G01*
G37*
G36*
G01*
X169952750Y-71042000D02*
X170915250Y-71042000D01*
G75*
G02*
X171184000Y-71310750I0J-268750D01*
G01*
X171184000Y-71848250D01*
G75*
G02*
X170915250Y-72117000I-268750J0D01*
G01*
X169952750Y-72117000D01*
G75*
G02*
X169684000Y-71848250I0J268750D01*
G01*
X169684000Y-71310750D01*
G75*
G02*
X169952750Y-71042000I268750J0D01*
G01*
G37*
%TD*%
D18*
%TO.C,Q1*%
X172085000Y-83209000D03*
X173035000Y-86209000D03*
X171135000Y-86209000D03*
%TD*%
%TO.C,C2*%
G36*
G01*
X192886250Y-78213000D02*
X191923750Y-78213000D01*
G75*
G02*
X191655000Y-77944250I0J268750D01*
G01*
X191655000Y-77406750D01*
G75*
G02*
X191923750Y-77138000I268750J0D01*
G01*
X192886250Y-77138000D01*
G75*
G02*
X193155000Y-77406750I0J-268750D01*
G01*
X193155000Y-77944250D01*
G75*
G02*
X192886250Y-78213000I-268750J0D01*
G01*
G37*
G36*
G01*
X192886250Y-80088000D02*
X191923750Y-80088000D01*
G75*
G02*
X191655000Y-79819250I0J268750D01*
G01*
X191655000Y-79281750D01*
G75*
G02*
X191923750Y-79013000I268750J0D01*
G01*
X192886250Y-79013000D01*
G75*
G02*
X193155000Y-79281750I0J-268750D01*
G01*
X193155000Y-79819250D01*
G75*
G02*
X192886250Y-80088000I-268750J0D01*
G01*
G37*
%TD*%
%TO.C,C1*%
G36*
G01*
X179724000Y-70839250D02*
X179724000Y-69876750D01*
G75*
G02*
X179992750Y-69608000I268750J0D01*
G01*
X180530250Y-69608000D01*
G75*
G02*
X180799000Y-69876750I0J-268750D01*
G01*
X180799000Y-70839250D01*
G75*
G02*
X180530250Y-71108000I-268750J0D01*
G01*
X179992750Y-71108000D01*
G75*
G02*
X179724000Y-70839250I0J268750D01*
G01*
G37*
G36*
G01*
X177849000Y-70839250D02*
X177849000Y-69876750D01*
G75*
G02*
X178117750Y-69608000I268750J0D01*
G01*
X178655250Y-69608000D01*
G75*
G02*
X178924000Y-69876750I0J-268750D01*
G01*
X178924000Y-70839250D01*
G75*
G02*
X178655250Y-71108000I-268750J0D01*
G01*
X178117750Y-71108000D01*
G75*
G02*
X177849000Y-70839250I0J268750D01*
G01*
G37*
%TD*%
M02*
