%TF.GenerationSoftware,KiCad,Pcbnew,5.1.6-c6e7f7d~87~ubuntu18.04.1*%
%TF.CreationDate,2020-11-27T17:36:11+05:00*%
%TF.ProjectId,NO2_signal_conditioner,4e4f325f-7369-4676-9e61-6c5f636f6e64,rev?*%
%TF.SameCoordinates,Original*%
%TF.FileFunction,Copper,L1,Top*%
%TF.FilePolarity,Positive*%
%FSLAX46Y46*%
G04 Gerber Fmt 4.6, Leading zero omitted, Abs format (unit mm)*
G04 Created by KiCad (PCBNEW 5.1.6-c6e7f7d~87~ubuntu18.04.1) date 2020-11-27 17:36:11*
%MOMM*%
%LPD*%
G01*
G04 APERTURE LIST*
%TA.AperFunction,Profile*%
%ADD10C,0.254000*%
%TD*%
%TA.AperFunction,Profile*%
%ADD11C,0.250000*%
%TD*%
%TA.AperFunction,ComponentPad*%
%ADD12O,1.700000X1.700000*%
%TD*%
%TA.AperFunction,ComponentPad*%
%ADD13R,1.700000X1.700000*%
%TD*%
%TA.AperFunction,ComponentPad*%
%ADD14O,1.600000X1.600000*%
%TD*%
%TA.AperFunction,ComponentPad*%
%ADD15O,1.600000X2.100000*%
%TD*%
%TA.AperFunction,SMDPad,CuDef*%
%ADD16R,1.060000X0.650000*%
%TD*%
%TA.AperFunction,ComponentPad*%
%ADD17R,1.600000X1.600000*%
%TD*%
%TA.AperFunction,SMDPad,CuDef*%
%ADD18R,0.800000X1.900000*%
%TD*%
%TA.AperFunction,ViaPad*%
%ADD19C,0.800000*%
%TD*%
%TA.AperFunction,Conductor*%
%ADD20C,0.250000*%
%TD*%
G04 APERTURE END LIST*
D10*
X154940000Y-91440000D02*
G75*
G02*
X152400000Y-88900000I0J2540000D01*
G01*
X152400000Y-66040000D02*
G75*
G02*
X154940000Y-63500000I2540000J0D01*
G01*
X200660000Y-63500000D02*
G75*
G02*
X203200000Y-66040000I0J-2540000D01*
G01*
X203200000Y-88900000D02*
G75*
G02*
X200660000Y-91440000I-2540000J0D01*
G01*
X152400000Y-88900000D02*
X152400000Y-66040000D01*
X200660000Y-91440000D02*
X154940000Y-91440000D01*
D11*
X203200000Y-66040000D02*
X203200000Y-88900000D01*
D10*
X154940000Y-63500000D02*
X200660000Y-63500000D01*
D12*
%TO.P,J3,2*%
%TO.N,5V*%
X199263000Y-68199000D03*
D13*
%TO.P,J3,1*%
%TO.N,GND*%
X199263000Y-70739000D03*
%TD*%
D12*
%TO.P,J2,2*%
%TO.N,GND*%
X199136000Y-84709000D03*
D13*
%TO.P,J2,1*%
%TO.N,Net-(C2-Pad1)*%
X199136000Y-87249000D03*
%TD*%
D14*
%TO.P,J1,3*%
%TO.N,/counter*%
X161036000Y-80506000D03*
%TO.P,J1,2*%
%TO.N,/sense*%
X157486000Y-76956000D03*
D15*
%TO.P,J1,1*%
%TO.N,/ref*%
X161036000Y-73406000D03*
%TD*%
D16*
%TO.P,U2,5*%
%TO.N,Vref*%
X188003000Y-71689000D03*
%TO.P,U2,4*%
%TO.N,5V*%
X188003000Y-69789000D03*
%TO.P,U2,3*%
X190203000Y-69789000D03*
%TO.P,U2,2*%
%TO.N,GND*%
X190203000Y-70739000D03*
%TO.P,U2,1*%
%TO.N,N/C*%
X190203000Y-71689000D03*
%TD*%
%TO.P,C3,2*%
%TO.N,GND*%
%TA.AperFunction,SMDPad,CuDef*%
G36*
G01*
X189426000Y-74878250D02*
X189426000Y-73965750D01*
G75*
G02*
X189669750Y-73722000I243750J0D01*
G01*
X190157250Y-73722000D01*
G75*
G02*
X190401000Y-73965750I0J-243750D01*
G01*
X190401000Y-74878250D01*
G75*
G02*
X190157250Y-75122000I-243750J0D01*
G01*
X189669750Y-75122000D01*
G75*
G02*
X189426000Y-74878250I0J243750D01*
G01*
G37*
%TD.AperFunction*%
%TO.P,C3,1*%
%TO.N,Vref*%
%TA.AperFunction,SMDPad,CuDef*%
G36*
G01*
X187551000Y-74878250D02*
X187551000Y-73965750D01*
G75*
G02*
X187794750Y-73722000I243750J0D01*
G01*
X188282250Y-73722000D01*
G75*
G02*
X188526000Y-73965750I0J-243750D01*
G01*
X188526000Y-74878250D01*
G75*
G02*
X188282250Y-75122000I-243750J0D01*
G01*
X187794750Y-75122000D01*
G75*
G02*
X187551000Y-74878250I0J243750D01*
G01*
G37*
%TD.AperFunction*%
%TD*%
D14*
%TO.P,U1,8*%
%TO.N,5V*%
X175514000Y-73406000D03*
%TO.P,U1,4*%
%TO.N,GND*%
X183134000Y-81026000D03*
%TO.P,U1,7*%
%TO.N,/counter*%
X178054000Y-73406000D03*
%TO.P,U1,3*%
%TO.N,Vref*%
X180594000Y-81026000D03*
%TO.P,U1,6*%
%TO.N,Net-(C1-Pad2)*%
X180594000Y-73406000D03*
%TO.P,U1,2*%
%TO.N,Net-(R2-Pad1)*%
X178054000Y-81026000D03*
%TO.P,U1,5*%
%TO.N,Vref*%
X183134000Y-73406000D03*
D17*
%TO.P,U1,1*%
%TO.N,Net-(R4-Pad1)*%
X175514000Y-81026000D03*
%TD*%
%TO.P,R5,2*%
%TO.N,Net-(R4-Pad1)*%
%TA.AperFunction,SMDPad,CuDef*%
G36*
G01*
X187630750Y-85794000D02*
X188543250Y-85794000D01*
G75*
G02*
X188787000Y-86037750I0J-243750D01*
G01*
X188787000Y-86525250D01*
G75*
G02*
X188543250Y-86769000I-243750J0D01*
G01*
X187630750Y-86769000D01*
G75*
G02*
X187387000Y-86525250I0J243750D01*
G01*
X187387000Y-86037750D01*
G75*
G02*
X187630750Y-85794000I243750J0D01*
G01*
G37*
%TD.AperFunction*%
%TO.P,R5,1*%
%TO.N,Net-(C2-Pad1)*%
%TA.AperFunction,SMDPad,CuDef*%
G36*
G01*
X187630750Y-83919000D02*
X188543250Y-83919000D01*
G75*
G02*
X188787000Y-84162750I0J-243750D01*
G01*
X188787000Y-84650250D01*
G75*
G02*
X188543250Y-84894000I-243750J0D01*
G01*
X187630750Y-84894000D01*
G75*
G02*
X187387000Y-84650250I0J243750D01*
G01*
X187387000Y-84162750D01*
G75*
G02*
X187630750Y-83919000I243750J0D01*
G01*
G37*
%TD.AperFunction*%
%TD*%
%TO.P,R4,2*%
%TO.N,Net-(R2-Pad1)*%
%TA.AperFunction,SMDPad,CuDef*%
G36*
G01*
X186257250Y-84894000D02*
X185344750Y-84894000D01*
G75*
G02*
X185101000Y-84650250I0J243750D01*
G01*
X185101000Y-84162750D01*
G75*
G02*
X185344750Y-83919000I243750J0D01*
G01*
X186257250Y-83919000D01*
G75*
G02*
X186501000Y-84162750I0J-243750D01*
G01*
X186501000Y-84650250D01*
G75*
G02*
X186257250Y-84894000I-243750J0D01*
G01*
G37*
%TD.AperFunction*%
%TO.P,R4,1*%
%TO.N,Net-(R4-Pad1)*%
%TA.AperFunction,SMDPad,CuDef*%
G36*
G01*
X186257250Y-86769000D02*
X185344750Y-86769000D01*
G75*
G02*
X185101000Y-86525250I0J243750D01*
G01*
X185101000Y-86037750D01*
G75*
G02*
X185344750Y-85794000I243750J0D01*
G01*
X186257250Y-85794000D01*
G75*
G02*
X186501000Y-86037750I0J-243750D01*
G01*
X186501000Y-86525250D01*
G75*
G02*
X186257250Y-86769000I-243750J0D01*
G01*
G37*
%TD.AperFunction*%
%TD*%
%TO.P,R3,2*%
%TO.N,Net-(Q1-Pad2)*%
%TA.AperFunction,SMDPad,CuDef*%
G36*
G01*
X175057750Y-86048000D02*
X175970250Y-86048000D01*
G75*
G02*
X176214000Y-86291750I0J-243750D01*
G01*
X176214000Y-86779250D01*
G75*
G02*
X175970250Y-87023000I-243750J0D01*
G01*
X175057750Y-87023000D01*
G75*
G02*
X174814000Y-86779250I0J243750D01*
G01*
X174814000Y-86291750D01*
G75*
G02*
X175057750Y-86048000I243750J0D01*
G01*
G37*
%TD.AperFunction*%
%TO.P,R3,1*%
%TO.N,5V*%
%TA.AperFunction,SMDPad,CuDef*%
G36*
G01*
X175057750Y-84173000D02*
X175970250Y-84173000D01*
G75*
G02*
X176214000Y-84416750I0J-243750D01*
G01*
X176214000Y-84904250D01*
G75*
G02*
X175970250Y-85148000I-243750J0D01*
G01*
X175057750Y-85148000D01*
G75*
G02*
X174814000Y-84904250I0J243750D01*
G01*
X174814000Y-84416750D01*
G75*
G02*
X175057750Y-84173000I243750J0D01*
G01*
G37*
%TD.AperFunction*%
%TD*%
%TO.P,R2,2*%
%TO.N,/sense*%
%TA.AperFunction,SMDPad,CuDef*%
G36*
G01*
X179502750Y-86175000D02*
X180415250Y-86175000D01*
G75*
G02*
X180659000Y-86418750I0J-243750D01*
G01*
X180659000Y-86906250D01*
G75*
G02*
X180415250Y-87150000I-243750J0D01*
G01*
X179502750Y-87150000D01*
G75*
G02*
X179259000Y-86906250I0J243750D01*
G01*
X179259000Y-86418750D01*
G75*
G02*
X179502750Y-86175000I243750J0D01*
G01*
G37*
%TD.AperFunction*%
%TO.P,R2,1*%
%TO.N,Net-(R2-Pad1)*%
%TA.AperFunction,SMDPad,CuDef*%
G36*
G01*
X179502750Y-84300000D02*
X180415250Y-84300000D01*
G75*
G02*
X180659000Y-84543750I0J-243750D01*
G01*
X180659000Y-85031250D01*
G75*
G02*
X180415250Y-85275000I-243750J0D01*
G01*
X179502750Y-85275000D01*
G75*
G02*
X179259000Y-85031250I0J243750D01*
G01*
X179259000Y-84543750D01*
G75*
G02*
X179502750Y-84300000I243750J0D01*
G01*
G37*
%TD.AperFunction*%
%TD*%
%TO.P,R1,2*%
%TO.N,/ref*%
%TA.AperFunction,SMDPad,CuDef*%
G36*
G01*
X169977750Y-72967000D02*
X170890250Y-72967000D01*
G75*
G02*
X171134000Y-73210750I0J-243750D01*
G01*
X171134000Y-73698250D01*
G75*
G02*
X170890250Y-73942000I-243750J0D01*
G01*
X169977750Y-73942000D01*
G75*
G02*
X169734000Y-73698250I0J243750D01*
G01*
X169734000Y-73210750D01*
G75*
G02*
X169977750Y-72967000I243750J0D01*
G01*
G37*
%TD.AperFunction*%
%TO.P,R1,1*%
%TO.N,Net-(C1-Pad2)*%
%TA.AperFunction,SMDPad,CuDef*%
G36*
G01*
X169977750Y-71092000D02*
X170890250Y-71092000D01*
G75*
G02*
X171134000Y-71335750I0J-243750D01*
G01*
X171134000Y-71823250D01*
G75*
G02*
X170890250Y-72067000I-243750J0D01*
G01*
X169977750Y-72067000D01*
G75*
G02*
X169734000Y-71823250I0J243750D01*
G01*
X169734000Y-71335750D01*
G75*
G02*
X169977750Y-71092000I243750J0D01*
G01*
G37*
%TD.AperFunction*%
%TD*%
D18*
%TO.P,Q1,3*%
%TO.N,/ref*%
X172085000Y-83209000D03*
%TO.P,Q1,2*%
%TO.N,Net-(Q1-Pad2)*%
X173035000Y-86209000D03*
%TO.P,Q1,1*%
%TO.N,/sense*%
X171135000Y-86209000D03*
%TD*%
%TO.P,C2,2*%
%TO.N,GND*%
%TA.AperFunction,SMDPad,CuDef*%
G36*
G01*
X192861250Y-78163000D02*
X191948750Y-78163000D01*
G75*
G02*
X191705000Y-77919250I0J243750D01*
G01*
X191705000Y-77431750D01*
G75*
G02*
X191948750Y-77188000I243750J0D01*
G01*
X192861250Y-77188000D01*
G75*
G02*
X193105000Y-77431750I0J-243750D01*
G01*
X193105000Y-77919250D01*
G75*
G02*
X192861250Y-78163000I-243750J0D01*
G01*
G37*
%TD.AperFunction*%
%TO.P,C2,1*%
%TO.N,Net-(C2-Pad1)*%
%TA.AperFunction,SMDPad,CuDef*%
G36*
G01*
X192861250Y-80038000D02*
X191948750Y-80038000D01*
G75*
G02*
X191705000Y-79794250I0J243750D01*
G01*
X191705000Y-79306750D01*
G75*
G02*
X191948750Y-79063000I243750J0D01*
G01*
X192861250Y-79063000D01*
G75*
G02*
X193105000Y-79306750I0J-243750D01*
G01*
X193105000Y-79794250D01*
G75*
G02*
X192861250Y-80038000I-243750J0D01*
G01*
G37*
%TD.AperFunction*%
%TD*%
%TO.P,C1,2*%
%TO.N,Net-(C1-Pad2)*%
%TA.AperFunction,SMDPad,CuDef*%
G36*
G01*
X179774000Y-70814250D02*
X179774000Y-69901750D01*
G75*
G02*
X180017750Y-69658000I243750J0D01*
G01*
X180505250Y-69658000D01*
G75*
G02*
X180749000Y-69901750I0J-243750D01*
G01*
X180749000Y-70814250D01*
G75*
G02*
X180505250Y-71058000I-243750J0D01*
G01*
X180017750Y-71058000D01*
G75*
G02*
X179774000Y-70814250I0J243750D01*
G01*
G37*
%TD.AperFunction*%
%TO.P,C1,1*%
%TO.N,/counter*%
%TA.AperFunction,SMDPad,CuDef*%
G36*
G01*
X177899000Y-70814250D02*
X177899000Y-69901750D01*
G75*
G02*
X178142750Y-69658000I243750J0D01*
G01*
X178630250Y-69658000D01*
G75*
G02*
X178874000Y-69901750I0J-243750D01*
G01*
X178874000Y-70814250D01*
G75*
G02*
X178630250Y-71058000I-243750J0D01*
G01*
X178142750Y-71058000D01*
G75*
G02*
X177899000Y-70814250I0J243750D01*
G01*
G37*
%TD.AperFunction*%
%TD*%
D19*
%TO.N,Net-(C2-Pad1)*%
X195580000Y-87249000D03*
%TO.N,5V*%
X193675000Y-68072000D03*
%TO.N,GND*%
X195548000Y-84614000D03*
X196088000Y-70739000D03*
%TO.N,Net-(R4-Pad1)*%
X182880000Y-86614000D03*
%TD*%
D20*
%TO.N,Net-(C1-Pad2)*%
X170434000Y-71579500D02*
X170434000Y-68707000D01*
X170434000Y-68707000D02*
X171196000Y-67945000D01*
X171196000Y-67945000D02*
X179959000Y-67945000D01*
X180261500Y-68247500D02*
X180261500Y-70358000D01*
X179959000Y-67945000D02*
X180261500Y-68247500D01*
X180594000Y-72517000D02*
X180594000Y-73406000D01*
X181356000Y-71755000D02*
X180594000Y-72517000D01*
X181356000Y-70612000D02*
X181356000Y-71755000D01*
X181102000Y-70358000D02*
X181356000Y-70612000D01*
X180261500Y-70358000D02*
X181102000Y-70358000D01*
%TO.N,Net-(C2-Pad1)*%
X192483500Y-79629000D02*
X192405000Y-79550500D01*
X192405000Y-79550500D02*
X192405000Y-82804000D01*
X190802500Y-84406500D02*
X188087000Y-84406500D01*
X192405000Y-82804000D02*
X190802500Y-84406500D01*
X192405000Y-85598000D02*
X192405000Y-82804000D01*
X192405000Y-86614000D02*
X192405000Y-85598000D01*
X193040000Y-87249000D02*
X192405000Y-86614000D01*
X193040000Y-87249000D02*
X195580000Y-87249000D01*
%TO.N,5V*%
X188003000Y-69789000D02*
X190203000Y-69789000D01*
X175260000Y-83566000D02*
X175514000Y-83820000D01*
X173736000Y-83185000D02*
X174117000Y-83566000D01*
X175514000Y-83820000D02*
X175514000Y-84660500D01*
X173736000Y-81661000D02*
X173736000Y-83185000D01*
X172974000Y-80899000D02*
X173736000Y-81661000D01*
X174117000Y-83566000D02*
X175260000Y-83566000D01*
X172974000Y-73914000D02*
X172974000Y-80899000D01*
X173482000Y-73406000D02*
X172974000Y-73914000D01*
X175514000Y-73406000D02*
X173482000Y-73406000D01*
X190203000Y-68623000D02*
X190203000Y-69789000D01*
X190627000Y-68199000D02*
X190203000Y-68623000D01*
X193548000Y-68199000D02*
X190627000Y-68199000D01*
X193675000Y-68072000D02*
X193548000Y-68199000D01*
%TO.N,GND*%
X192405000Y-77675500D02*
X192405000Y-75311000D01*
X191516000Y-74422000D02*
X189913500Y-74422000D01*
X192341500Y-75247500D02*
X191516000Y-74422000D01*
X192405000Y-75311000D02*
X192341500Y-75247500D01*
X190203000Y-70739000D02*
X192024000Y-70739000D01*
X192024000Y-70739000D02*
X192405000Y-71120000D01*
X196088000Y-70739000D02*
X192913000Y-70739000D01*
X192913000Y-70739000D02*
X192405000Y-71247000D01*
X192405000Y-71247000D02*
X192405000Y-75311000D01*
X192405000Y-71120000D02*
X192405000Y-71247000D01*
X195548000Y-78327000D02*
X195548000Y-84614000D01*
X194896500Y-77675500D02*
X195548000Y-78327000D01*
X192405000Y-77675500D02*
X194896500Y-77675500D01*
%TO.N,Net-(Q1-Pad2)*%
X173035000Y-86209000D02*
X173712000Y-86209000D01*
X174038500Y-86535500D02*
X175514000Y-86535500D01*
X173712000Y-86209000D02*
X174038500Y-86535500D01*
%TO.N,Net-(R2-Pad1)*%
X183944500Y-84406500D02*
X185801000Y-84406500D01*
X183563500Y-84787500D02*
X183944500Y-84406500D01*
X179959000Y-84787500D02*
X183563500Y-84787500D01*
X178894500Y-84787500D02*
X179959000Y-84787500D01*
X178054000Y-83947000D02*
X178894500Y-84787500D01*
X178054000Y-81026000D02*
X178054000Y-83947000D01*
%TO.N,Net-(R4-Pad1)*%
X188087000Y-86281500D02*
X185801000Y-86281500D01*
X183944500Y-86281500D02*
X185801000Y-86281500D01*
X183612000Y-86614000D02*
X183944500Y-86281500D01*
X182880000Y-86614000D02*
X183612000Y-86614000D01*
%TO.N,Vref*%
X188003000Y-74386500D02*
X188038500Y-74422000D01*
X188003000Y-71689000D02*
X188003000Y-74386500D01*
X186563000Y-74422000D02*
X188038500Y-74422000D01*
X184912000Y-76073000D02*
X186563000Y-74422000D01*
X180594000Y-81026000D02*
X180594000Y-78867000D01*
X180594000Y-78867000D02*
X183134000Y-76327000D01*
X184912000Y-76073000D02*
X183134000Y-76073000D01*
X183134000Y-76073000D02*
X183134000Y-73406000D01*
X183134000Y-76327000D02*
X183134000Y-76073000D01*
%TO.N,/counter*%
X178054000Y-72898000D02*
X178054000Y-73406000D01*
X177292000Y-72136000D02*
X178054000Y-72898000D01*
X177292000Y-70612000D02*
X177292000Y-72136000D01*
X177546000Y-70358000D02*
X177292000Y-70612000D01*
X178386500Y-70358000D02*
X177546000Y-70358000D01*
%TO.N,/sense*%
X171135000Y-88458000D02*
X171196000Y-88519000D01*
X171135000Y-86209000D02*
X171135000Y-88458000D01*
X163957000Y-88519000D02*
X171196000Y-88519000D01*
X179959000Y-88138000D02*
X179959000Y-86662500D01*
X179578000Y-88519000D02*
X179959000Y-88138000D01*
X171196000Y-88519000D02*
X179578000Y-88519000D01*
X157486000Y-76956000D02*
X157486000Y-87382000D01*
X158623000Y-88519000D02*
X163957000Y-88519000D01*
X157486000Y-87382000D02*
X158623000Y-88519000D01*
%TO.N,/ref*%
X170385500Y-73406000D02*
X170434000Y-73454500D01*
X161036000Y-73406000D02*
X170385500Y-73406000D01*
X172085000Y-83209000D02*
X172085000Y-82169000D01*
X170434000Y-80518000D02*
X170434000Y-73454500D01*
X172085000Y-82169000D02*
X170434000Y-80518000D01*
%TD*%
M02*
