%TF.GenerationSoftware,KiCad,Pcbnew,5.1.6-c6e7f7d~87~ubuntu18.04.1*%
%TF.CreationDate,2020-11-27T17:36:11+05:00*%
%TF.ProjectId,NO2_signal_conditioner,4e4f325f-7369-4676-9e61-6c5f636f6e64,rev?*%
%TF.SameCoordinates,Original*%
%TF.FileFunction,Copper,L2,Bot*%
%TF.FilePolarity,Positive*%
%FSLAX46Y46*%
G04 Gerber Fmt 4.6, Leading zero omitted, Abs format (unit mm)*
G04 Created by KiCad (PCBNEW 5.1.6-c6e7f7d~87~ubuntu18.04.1) date 2020-11-27 17:36:11*
%MOMM*%
%LPD*%
G01*
G04 APERTURE LIST*
%TA.AperFunction,Profile*%
%ADD10C,0.254000*%
%TD*%
%TA.AperFunction,Profile*%
%ADD11C,0.250000*%
%TD*%
%TA.AperFunction,ComponentPad*%
%ADD12O,1.700000X1.700000*%
%TD*%
%TA.AperFunction,ComponentPad*%
%ADD13R,1.700000X1.700000*%
%TD*%
%TA.AperFunction,ComponentPad*%
%ADD14O,1.600000X1.600000*%
%TD*%
%TA.AperFunction,ComponentPad*%
%ADD15O,1.600000X2.100000*%
%TD*%
%TA.AperFunction,ComponentPad*%
%ADD16R,1.600000X1.600000*%
%TD*%
%TA.AperFunction,ViaPad*%
%ADD17C,0.800000*%
%TD*%
%TA.AperFunction,Conductor*%
%ADD18C,0.250000*%
%TD*%
G04 APERTURE END LIST*
D10*
X154940000Y-91440000D02*
G75*
G02*
X152400000Y-88900000I0J2540000D01*
G01*
X152400000Y-66040000D02*
G75*
G02*
X154940000Y-63500000I2540000J0D01*
G01*
X200660000Y-63500000D02*
G75*
G02*
X203200000Y-66040000I0J-2540000D01*
G01*
X203200000Y-88900000D02*
G75*
G02*
X200660000Y-91440000I-2540000J0D01*
G01*
X152400000Y-88900000D02*
X152400000Y-66040000D01*
X200660000Y-91440000D02*
X154940000Y-91440000D01*
D11*
X203200000Y-66040000D02*
X203200000Y-88900000D01*
D10*
X154940000Y-63500000D02*
X200660000Y-63500000D01*
D12*
%TO.P,J3,2*%
%TO.N,5V*%
X199263000Y-68199000D03*
D13*
%TO.P,J3,1*%
%TO.N,GND*%
X199263000Y-70739000D03*
%TD*%
D12*
%TO.P,J2,2*%
%TO.N,GND*%
X199136000Y-84709000D03*
D13*
%TO.P,J2,1*%
%TO.N,Net-(C2-Pad1)*%
X199136000Y-87249000D03*
%TD*%
D14*
%TO.P,J1,3*%
%TO.N,/counter*%
X161036000Y-80506000D03*
%TO.P,J1,2*%
%TO.N,/sense*%
X157486000Y-76956000D03*
D15*
%TO.P,J1,1*%
%TO.N,/ref*%
X161036000Y-73406000D03*
%TD*%
D14*
%TO.P,U1,8*%
%TO.N,5V*%
X175514000Y-73406000D03*
%TO.P,U1,4*%
%TO.N,GND*%
X183134000Y-81026000D03*
%TO.P,U1,7*%
%TO.N,/counter*%
X178054000Y-73406000D03*
%TO.P,U1,3*%
%TO.N,Vref*%
X180594000Y-81026000D03*
%TO.P,U1,6*%
%TO.N,Net-(C1-Pad2)*%
X180594000Y-73406000D03*
%TO.P,U1,2*%
%TO.N,Net-(R2-Pad1)*%
X178054000Y-81026000D03*
%TO.P,U1,5*%
%TO.N,Vref*%
X183134000Y-73406000D03*
D16*
%TO.P,U1,1*%
%TO.N,Net-(R4-Pad1)*%
X175514000Y-81026000D03*
%TD*%
D17*
%TO.N,Net-(C2-Pad1)*%
X195580000Y-87249000D03*
%TO.N,5V*%
X193675000Y-68072000D03*
%TO.N,GND*%
X195548000Y-84614000D03*
X196088000Y-70739000D03*
%TO.N,Net-(R4-Pad1)*%
X182880000Y-86614000D03*
%TD*%
D18*
%TO.N,Net-(C2-Pad1)*%
X195580000Y-87249000D02*
X199136000Y-87249000D01*
%TO.N,5V*%
X193802000Y-68199000D02*
X193675000Y-68072000D01*
X199263000Y-68199000D02*
X193802000Y-68199000D01*
X193675000Y-67056000D02*
X193675000Y-68072000D01*
X193040000Y-66421000D02*
X193675000Y-67056000D01*
X176276000Y-66421000D02*
X193040000Y-66421000D01*
X175514000Y-67183000D02*
X176276000Y-66421000D01*
X175514000Y-73406000D02*
X175514000Y-67183000D01*
%TO.N,GND*%
X199041000Y-84614000D02*
X199136000Y-84709000D01*
X196564000Y-84614000D02*
X199041000Y-84614000D01*
X196564000Y-84614000D02*
X196723000Y-84614000D01*
X195548000Y-84614000D02*
X196564000Y-84614000D01*
X199263000Y-70739000D02*
X196088000Y-70739000D01*
X192691000Y-84614000D02*
X195548000Y-84614000D01*
X189103000Y-81026000D02*
X192691000Y-84614000D01*
X183134000Y-81026000D02*
X189103000Y-81026000D01*
%TO.N,Net-(R4-Pad1)*%
X178943000Y-86614000D02*
X182880000Y-86614000D01*
X175514000Y-83185000D02*
X178943000Y-86614000D01*
X175514000Y-81026000D02*
X175514000Y-83185000D01*
%TO.N,/counter*%
X172085000Y-77470000D02*
X177419000Y-77470000D01*
X178054000Y-76835000D02*
X178054000Y-73406000D01*
X177419000Y-77470000D02*
X178054000Y-76835000D01*
X169049000Y-80506000D02*
X169164000Y-80391000D01*
X161036000Y-80506000D02*
X169049000Y-80506000D01*
X169164000Y-80391000D02*
X172085000Y-77470000D01*
%TD*%
M02*
