%TF.GenerationSoftware,KiCad,Pcbnew,5.1.6-c6e7f7d~87~ubuntu18.04.1*%
%TF.CreationDate,2020-11-27T17:36:11+05:00*%
%TF.ProjectId,NO2_signal_conditioner,4e4f325f-7369-4676-9e61-6c5f636f6e64,rev?*%
%TF.SameCoordinates,Original*%
%TF.FileFunction,Legend,Top*%
%TF.FilePolarity,Positive*%
%FSLAX46Y46*%
G04 Gerber Fmt 4.6, Leading zero omitted, Abs format (unit mm)*
G04 Created by KiCad (PCBNEW 5.1.6-c6e7f7d~87~ubuntu18.04.1) date 2020-11-27 17:36:11*
%MOMM*%
%LPD*%
G01*
G04 APERTURE LIST*
%TA.AperFunction,Profile*%
%ADD10C,0.254000*%
%TD*%
%ADD11C,0.150000*%
%TA.AperFunction,Profile*%
%ADD12C,0.250000*%
%TD*%
%ADD13C,0.120000*%
G04 APERTURE END LIST*
D10*
X154940000Y-91440000D02*
G75*
G02*
X152400000Y-88900000I0J2540000D01*
G01*
X152400000Y-66040000D02*
G75*
G02*
X154940000Y-63500000I2540000J0D01*
G01*
X200660000Y-63500000D02*
G75*
G02*
X203200000Y-66040000I0J-2540000D01*
G01*
X203200000Y-88900000D02*
G75*
G02*
X200660000Y-91440000I-2540000J0D01*
G01*
D11*
X197612190Y-81367380D02*
X197945523Y-82367380D01*
X198278857Y-81367380D01*
X198755047Y-82367380D02*
X198659809Y-82319761D01*
X198612190Y-82272142D01*
X198564571Y-82176904D01*
X198564571Y-81891190D01*
X198612190Y-81795952D01*
X198659809Y-81748333D01*
X198755047Y-81700714D01*
X198897904Y-81700714D01*
X198993142Y-81748333D01*
X199040761Y-81795952D01*
X199088380Y-81891190D01*
X199088380Y-82176904D01*
X199040761Y-82272142D01*
X198993142Y-82319761D01*
X198897904Y-82367380D01*
X198755047Y-82367380D01*
X199945523Y-81700714D02*
X199945523Y-82367380D01*
X199516952Y-81700714D02*
X199516952Y-82224523D01*
X199564571Y-82319761D01*
X199659809Y-82367380D01*
X199802666Y-82367380D01*
X199897904Y-82319761D01*
X199945523Y-82272142D01*
X200278857Y-81700714D02*
X200659809Y-81700714D01*
X200421714Y-81367380D02*
X200421714Y-82224523D01*
X200469333Y-82319761D01*
X200564571Y-82367380D01*
X200659809Y-82367380D01*
X195508952Y-72731380D02*
X195032761Y-72731380D01*
X194985142Y-73207571D01*
X195032761Y-73159952D01*
X195128000Y-73112333D01*
X195366095Y-73112333D01*
X195461333Y-73159952D01*
X195508952Y-73207571D01*
X195556571Y-73302809D01*
X195556571Y-73540904D01*
X195508952Y-73636142D01*
X195461333Y-73683761D01*
X195366095Y-73731380D01*
X195128000Y-73731380D01*
X195032761Y-73683761D01*
X194985142Y-73636142D01*
X195842285Y-72731380D02*
X196175619Y-73731380D01*
X196508952Y-72731380D01*
X197556571Y-73683761D02*
X197699428Y-73731380D01*
X197937523Y-73731380D01*
X198032761Y-73683761D01*
X198080380Y-73636142D01*
X198128000Y-73540904D01*
X198128000Y-73445666D01*
X198080380Y-73350428D01*
X198032761Y-73302809D01*
X197937523Y-73255190D01*
X197747047Y-73207571D01*
X197651809Y-73159952D01*
X197604190Y-73112333D01*
X197556571Y-73017095D01*
X197556571Y-72921857D01*
X197604190Y-72826619D01*
X197651809Y-72779000D01*
X197747047Y-72731380D01*
X197985142Y-72731380D01*
X198128000Y-72779000D01*
X198699428Y-73731380D02*
X198604190Y-73683761D01*
X198556571Y-73636142D01*
X198508952Y-73540904D01*
X198508952Y-73255190D01*
X198556571Y-73159952D01*
X198604190Y-73112333D01*
X198699428Y-73064714D01*
X198842285Y-73064714D01*
X198937523Y-73112333D01*
X198985142Y-73159952D01*
X199032761Y-73255190D01*
X199032761Y-73540904D01*
X198985142Y-73636142D01*
X198937523Y-73683761D01*
X198842285Y-73731380D01*
X198699428Y-73731380D01*
X199889904Y-73064714D02*
X199889904Y-73731380D01*
X199461333Y-73064714D02*
X199461333Y-73588523D01*
X199508952Y-73683761D01*
X199604190Y-73731380D01*
X199747047Y-73731380D01*
X199842285Y-73683761D01*
X199889904Y-73636142D01*
X200366095Y-73731380D02*
X200366095Y-73064714D01*
X200366095Y-73255190D02*
X200413714Y-73159952D01*
X200461333Y-73112333D01*
X200556571Y-73064714D01*
X200651809Y-73064714D01*
X201413714Y-73683761D02*
X201318476Y-73731380D01*
X201128000Y-73731380D01*
X201032761Y-73683761D01*
X200985142Y-73636142D01*
X200937523Y-73540904D01*
X200937523Y-73255190D01*
X200985142Y-73159952D01*
X201032761Y-73112333D01*
X201128000Y-73064714D01*
X201318476Y-73064714D01*
X201413714Y-73112333D01*
X202223238Y-73683761D02*
X202128000Y-73731380D01*
X201937523Y-73731380D01*
X201842285Y-73683761D01*
X201794666Y-73588523D01*
X201794666Y-73207571D01*
X201842285Y-73112333D01*
X201937523Y-73064714D01*
X202128000Y-73064714D01*
X202223238Y-73112333D01*
X202270857Y-73207571D01*
X202270857Y-73302809D01*
X201794666Y-73398047D01*
D10*
X152400000Y-88900000D02*
X152400000Y-66040000D01*
X200660000Y-91440000D02*
X154940000Y-91440000D01*
D12*
X203200000Y-66040000D02*
X203200000Y-88900000D01*
D10*
X154940000Y-63500000D02*
X200660000Y-63500000D01*
D13*
%TO.C,J3*%
X200593000Y-72069000D02*
X199263000Y-72069000D01*
X200593000Y-70739000D02*
X200593000Y-72069000D01*
X200593000Y-69469000D02*
X197933000Y-69469000D01*
X197933000Y-69469000D02*
X197933000Y-66869000D01*
X200593000Y-69469000D02*
X200593000Y-66869000D01*
X200593000Y-66869000D02*
X197933000Y-66869000D01*
%TO.C,J2*%
X200466000Y-88579000D02*
X199136000Y-88579000D01*
X200466000Y-87249000D02*
X200466000Y-88579000D01*
X200466000Y-85979000D02*
X197806000Y-85979000D01*
X197806000Y-85979000D02*
X197806000Y-83379000D01*
X200466000Y-85979000D02*
X200466000Y-83379000D01*
X200466000Y-83379000D02*
X197806000Y-83379000D01*
%TO.C,J1*%
X168356000Y-76956000D02*
G75*
G03*
X168356000Y-76956000I-7320000J0D01*
G01*
%TO.C,U2*%
X188203000Y-72349000D02*
X190653000Y-72349000D01*
X190003000Y-69129000D02*
X188203000Y-69129000D01*
%TO.C,C3*%
X188717422Y-75132000D02*
X189234578Y-75132000D01*
X188717422Y-73712000D02*
X189234578Y-73712000D01*
%TO.C,U1*%
X174184000Y-74566000D02*
X174184000Y-76216000D01*
X184464000Y-74566000D02*
X174184000Y-74566000D01*
X184464000Y-79866000D02*
X184464000Y-74566000D01*
X174184000Y-79866000D02*
X184464000Y-79866000D01*
X174184000Y-78216000D02*
X174184000Y-79866000D01*
X174184000Y-76216000D02*
G75*
G02*
X174184000Y-78216000I0J-1000000D01*
G01*
%TO.C,R5*%
X187377000Y-85085422D02*
X187377000Y-85602578D01*
X188797000Y-85085422D02*
X188797000Y-85602578D01*
%TO.C,R4*%
X186511000Y-85602578D02*
X186511000Y-85085422D01*
X185091000Y-85602578D02*
X185091000Y-85085422D01*
%TO.C,R3*%
X174804000Y-85339422D02*
X174804000Y-85856578D01*
X176224000Y-85339422D02*
X176224000Y-85856578D01*
%TO.C,R2*%
X179249000Y-85466422D02*
X179249000Y-85983578D01*
X180669000Y-85466422D02*
X180669000Y-85983578D01*
%TO.C,R1*%
X169724000Y-72258422D02*
X169724000Y-72775578D01*
X171144000Y-72258422D02*
X171144000Y-72775578D01*
%TO.C,Q1*%
X173665000Y-83949000D02*
X173665000Y-85409000D01*
X170505000Y-83949000D02*
X170505000Y-87109000D01*
X170505000Y-83949000D02*
X171435000Y-83949000D01*
X173665000Y-83949000D02*
X172735000Y-83949000D01*
%TO.C,C2*%
X193115000Y-78871578D02*
X193115000Y-78354422D01*
X191695000Y-78871578D02*
X191695000Y-78354422D01*
%TO.C,C1*%
X179065422Y-71068000D02*
X179582578Y-71068000D01*
X179065422Y-69648000D02*
X179582578Y-69648000D01*
%TD*%
%TO.C,J3*%
D11*
X201596666Y-67270380D02*
X201596666Y-67984666D01*
X201549047Y-68127523D01*
X201453809Y-68222761D01*
X201310952Y-68270380D01*
X201215714Y-68270380D01*
X201977619Y-67270380D02*
X202596666Y-67270380D01*
X202263333Y-67651333D01*
X202406190Y-67651333D01*
X202501428Y-67698952D01*
X202549047Y-67746571D01*
X202596666Y-67841809D01*
X202596666Y-68079904D01*
X202549047Y-68175142D01*
X202501428Y-68222761D01*
X202406190Y-68270380D01*
X202120476Y-68270380D01*
X202025238Y-68222761D01*
X201977619Y-68175142D01*
%TO.C,J2*%
X201342666Y-83399380D02*
X201342666Y-84113666D01*
X201295047Y-84256523D01*
X201199809Y-84351761D01*
X201056952Y-84399380D01*
X200961714Y-84399380D01*
X201771238Y-83494619D02*
X201818857Y-83447000D01*
X201914095Y-83399380D01*
X202152190Y-83399380D01*
X202247428Y-83447000D01*
X202295047Y-83494619D01*
X202342666Y-83589857D01*
X202342666Y-83685095D01*
X202295047Y-83827952D01*
X201723619Y-84399380D01*
X202342666Y-84399380D01*
%TO.C,J1*%
X160194666Y-85558380D02*
X160194666Y-86272666D01*
X160147047Y-86415523D01*
X160051809Y-86510761D01*
X159908952Y-86558380D01*
X159813714Y-86558380D01*
X161194666Y-86558380D02*
X160623238Y-86558380D01*
X160908952Y-86558380D02*
X160908952Y-85558380D01*
X160813714Y-85701238D01*
X160718476Y-85796476D01*
X160623238Y-85844095D01*
%TO.C,U2*%
X188341095Y-67485380D02*
X188341095Y-68294904D01*
X188388714Y-68390142D01*
X188436333Y-68437761D01*
X188531571Y-68485380D01*
X188722047Y-68485380D01*
X188817285Y-68437761D01*
X188864904Y-68390142D01*
X188912523Y-68294904D01*
X188912523Y-67485380D01*
X189341095Y-67580619D02*
X189388714Y-67533000D01*
X189483952Y-67485380D01*
X189722047Y-67485380D01*
X189817285Y-67533000D01*
X189864904Y-67580619D01*
X189912523Y-67675857D01*
X189912523Y-67771095D01*
X189864904Y-67913952D01*
X189293476Y-68485380D01*
X189912523Y-68485380D01*
%TO.C,C3*%
X188682333Y-76430142D02*
X188634714Y-76477761D01*
X188491857Y-76525380D01*
X188396619Y-76525380D01*
X188253761Y-76477761D01*
X188158523Y-76382523D01*
X188110904Y-76287285D01*
X188063285Y-76096809D01*
X188063285Y-75953952D01*
X188110904Y-75763476D01*
X188158523Y-75668238D01*
X188253761Y-75573000D01*
X188396619Y-75525380D01*
X188491857Y-75525380D01*
X188634714Y-75573000D01*
X188682333Y-75620619D01*
X189015666Y-75525380D02*
X189634714Y-75525380D01*
X189301380Y-75906333D01*
X189444238Y-75906333D01*
X189539476Y-75953952D01*
X189587095Y-76001571D01*
X189634714Y-76096809D01*
X189634714Y-76334904D01*
X189587095Y-76430142D01*
X189539476Y-76477761D01*
X189444238Y-76525380D01*
X189158523Y-76525380D01*
X189063285Y-76477761D01*
X189015666Y-76430142D01*
%TO.C,U1*%
X185039095Y-78700380D02*
X185039095Y-79509904D01*
X185086714Y-79605142D01*
X185134333Y-79652761D01*
X185229571Y-79700380D01*
X185420047Y-79700380D01*
X185515285Y-79652761D01*
X185562904Y-79605142D01*
X185610523Y-79509904D01*
X185610523Y-78700380D01*
X186610523Y-79700380D02*
X186039095Y-79700380D01*
X186324809Y-79700380D02*
X186324809Y-78700380D01*
X186229571Y-78843238D01*
X186134333Y-78938476D01*
X186039095Y-78986095D01*
%TO.C,R5*%
X188047333Y-88209380D02*
X187714000Y-87733190D01*
X187475904Y-88209380D02*
X187475904Y-87209380D01*
X187856857Y-87209380D01*
X187952095Y-87257000D01*
X187999714Y-87304619D01*
X188047333Y-87399857D01*
X188047333Y-87542714D01*
X187999714Y-87637952D01*
X187952095Y-87685571D01*
X187856857Y-87733190D01*
X187475904Y-87733190D01*
X188952095Y-87209380D02*
X188475904Y-87209380D01*
X188428285Y-87685571D01*
X188475904Y-87637952D01*
X188571142Y-87590333D01*
X188809238Y-87590333D01*
X188904476Y-87637952D01*
X188952095Y-87685571D01*
X188999714Y-87780809D01*
X188999714Y-88018904D01*
X188952095Y-88114142D01*
X188904476Y-88161761D01*
X188809238Y-88209380D01*
X188571142Y-88209380D01*
X188475904Y-88161761D01*
X188428285Y-88114142D01*
%TO.C,R4*%
X185634333Y-88209380D02*
X185301000Y-87733190D01*
X185062904Y-88209380D02*
X185062904Y-87209380D01*
X185443857Y-87209380D01*
X185539095Y-87257000D01*
X185586714Y-87304619D01*
X185634333Y-87399857D01*
X185634333Y-87542714D01*
X185586714Y-87637952D01*
X185539095Y-87685571D01*
X185443857Y-87733190D01*
X185062904Y-87733190D01*
X186491476Y-87542714D02*
X186491476Y-88209380D01*
X186253380Y-87161761D02*
X186015285Y-87876047D01*
X186634333Y-87876047D01*
%TO.C,R3*%
X175474333Y-88590380D02*
X175141000Y-88114190D01*
X174902904Y-88590380D02*
X174902904Y-87590380D01*
X175283857Y-87590380D01*
X175379095Y-87638000D01*
X175426714Y-87685619D01*
X175474333Y-87780857D01*
X175474333Y-87923714D01*
X175426714Y-88018952D01*
X175379095Y-88066571D01*
X175283857Y-88114190D01*
X174902904Y-88114190D01*
X175807666Y-87590380D02*
X176426714Y-87590380D01*
X176093380Y-87971333D01*
X176236238Y-87971333D01*
X176331476Y-88018952D01*
X176379095Y-88066571D01*
X176426714Y-88161809D01*
X176426714Y-88399904D01*
X176379095Y-88495142D01*
X176331476Y-88542761D01*
X176236238Y-88590380D01*
X175950523Y-88590380D01*
X175855285Y-88542761D01*
X175807666Y-88495142D01*
%TO.C,R2*%
X179919333Y-88590380D02*
X179586000Y-88114190D01*
X179347904Y-88590380D02*
X179347904Y-87590380D01*
X179728857Y-87590380D01*
X179824095Y-87638000D01*
X179871714Y-87685619D01*
X179919333Y-87780857D01*
X179919333Y-87923714D01*
X179871714Y-88018952D01*
X179824095Y-88066571D01*
X179728857Y-88114190D01*
X179347904Y-88114190D01*
X180300285Y-87685619D02*
X180347904Y-87638000D01*
X180443142Y-87590380D01*
X180681238Y-87590380D01*
X180776476Y-87638000D01*
X180824095Y-87685619D01*
X180871714Y-87780857D01*
X180871714Y-87876095D01*
X180824095Y-88018952D01*
X180252666Y-88590380D01*
X180871714Y-88590380D01*
%TO.C,R1*%
X170267333Y-75382380D02*
X169934000Y-74906190D01*
X169695904Y-75382380D02*
X169695904Y-74382380D01*
X170076857Y-74382380D01*
X170172095Y-74430000D01*
X170219714Y-74477619D01*
X170267333Y-74572857D01*
X170267333Y-74715714D01*
X170219714Y-74810952D01*
X170172095Y-74858571D01*
X170076857Y-74906190D01*
X169695904Y-74906190D01*
X171219714Y-75382380D02*
X170648285Y-75382380D01*
X170934000Y-75382380D02*
X170934000Y-74382380D01*
X170838761Y-74525238D01*
X170743523Y-74620476D01*
X170648285Y-74668095D01*
%TO.C,Q1*%
X172243761Y-88685619D02*
X172148523Y-88638000D01*
X172053285Y-88542761D01*
X171910428Y-88399904D01*
X171815190Y-88352285D01*
X171719952Y-88352285D01*
X171767571Y-88590380D02*
X171672333Y-88542761D01*
X171577095Y-88447523D01*
X171529476Y-88257047D01*
X171529476Y-87923714D01*
X171577095Y-87733238D01*
X171672333Y-87638000D01*
X171767571Y-87590380D01*
X171958047Y-87590380D01*
X172053285Y-87638000D01*
X172148523Y-87733238D01*
X172196142Y-87923714D01*
X172196142Y-88257047D01*
X172148523Y-88447523D01*
X172053285Y-88542761D01*
X171958047Y-88590380D01*
X171767571Y-88590380D01*
X173148523Y-88590380D02*
X172577095Y-88590380D01*
X172862809Y-88590380D02*
X172862809Y-87590380D01*
X172767571Y-87733238D01*
X172672333Y-87828476D01*
X172577095Y-87876095D01*
%TO.C,C2*%
X192238333Y-81510142D02*
X192190714Y-81557761D01*
X192047857Y-81605380D01*
X191952619Y-81605380D01*
X191809761Y-81557761D01*
X191714523Y-81462523D01*
X191666904Y-81367285D01*
X191619285Y-81176809D01*
X191619285Y-81033952D01*
X191666904Y-80843476D01*
X191714523Y-80748238D01*
X191809761Y-80653000D01*
X191952619Y-80605380D01*
X192047857Y-80605380D01*
X192190714Y-80653000D01*
X192238333Y-80700619D01*
X192619285Y-80700619D02*
X192666904Y-80653000D01*
X192762142Y-80605380D01*
X193000238Y-80605380D01*
X193095476Y-80653000D01*
X193143095Y-80700619D01*
X193190714Y-80795857D01*
X193190714Y-80891095D01*
X193143095Y-81033952D01*
X192571666Y-81605380D01*
X193190714Y-81605380D01*
%TO.C,C1*%
X179157333Y-69065142D02*
X179109714Y-69112761D01*
X178966857Y-69160380D01*
X178871619Y-69160380D01*
X178728761Y-69112761D01*
X178633523Y-69017523D01*
X178585904Y-68922285D01*
X178538285Y-68731809D01*
X178538285Y-68588952D01*
X178585904Y-68398476D01*
X178633523Y-68303238D01*
X178728761Y-68208000D01*
X178871619Y-68160380D01*
X178966857Y-68160380D01*
X179109714Y-68208000D01*
X179157333Y-68255619D01*
X180109714Y-69160380D02*
X179538285Y-69160380D01*
X179824000Y-69160380D02*
X179824000Y-68160380D01*
X179728761Y-68303238D01*
X179633523Y-68398476D01*
X179538285Y-68446095D01*
%TD*%
M02*
