M48
; DRILL file {KiCad 5.1.6-c6e7f7d~87~ubuntu18.04.1} date Fri Nov 27 17:36:24 2020
; FORMAT={-:-/ absolute / metric / decimal}
; #@! TF.CreationDate,2020-11-27T17:36:24+05:00
; #@! TF.GenerationSoftware,Kicad,Pcbnew,5.1.6-c6e7f7d~87~ubuntu18.04.1
FMAT,2
METRIC
T1C0.400
T2C0.800
T3C1.000
T4C1.100
%
G90
G05
T1
X182.88Y-86.614
X193.675Y-68.072
X195.548Y-84.614
X195.58Y-87.249
X196.088Y-70.739
T2
X175.514Y-73.406
X175.514Y-81.026
X178.054Y-73.406
X178.054Y-81.026
X180.594Y-73.406
X180.594Y-81.026
X183.134Y-73.406
X183.134Y-81.026
T3
X199.136Y-84.709
X199.136Y-87.249
X199.263Y-68.199
X199.263Y-70.739
T4
X157.486Y-76.956
X161.036Y-73.406
X161.036Y-80.506
T0
M30
